<svg width="726" height="994" viewBox="0 0 726 994" fill="none" xmlns="http://www.w3.org/2000/svg">
<g filter="url(#filter0_d_68_261)">
<path fill-rule="evenodd" clip-rule="evenodd" d="M301.535 31.1308C432.765 23.9105 563.554 93.3976 641.199 197.779C713.642 295.169 685.704 422.807 682.496 543.276C679.12 670.034 716.543 817.776 622.382 904.302C527.552 991.443 378.999 949.803 249.302 941.346C121.256 932.996 -18.3023 943.903 -110.942 856.482C-208.424 764.492 -253.677 621.214 -227.894 491.033C-204.273 371.769 -79.9141 312.785 12.6675 232.361C104.593 152.508 178.924 37.877 301.535 31.1308Z" fill="url(#paint0_linear_68_261)"/>
</g>
<g clip-path="url(#clip0_68_261)">
<path d="M629.86 735.956H583.492V736.306H629.86V735.956Z" fill="#F9FAFB"/>
<path d="M463.708 739.764H451.542V740.114H463.708V739.764Z" fill="#F9FAFB"/>
<path d="M582.092 722.964H555.226V723.314H582.092V722.964Z" fill="#F9FAFB"/>
<path d="M133.91 725.316H73.444V725.666H133.91V725.316Z" fill="#F9FAFB"/>
<path d="M155.246 725.316H146.384V725.666H155.246V725.316Z" fill="#F9FAFB"/>
<path d="M315.21 731.224H184.058V731.574H315.21V731.224Z" fill="#F9FAFB"/>
<path d="M333.76 650.99H63.42C59.01 650.99 55.426 647.406 55.426 642.996V262.994C55.426 258.584 59.01 255 63.42 255H333.76C338.17 255 341.754 258.584 341.754 262.994V642.996C341.754 647.406 338.17 650.99 333.76 650.99ZM63.42 255.35C59.206 255.35 55.776 258.78 55.776 262.994V642.996C55.776 647.21 59.206 650.64 63.42 650.64H333.76C337.974 650.64 341.404 647.21 341.404 642.996V262.994C341.404 258.78 337.974 255.35 333.76 255.35H63.42Z" fill="#F9FAFB"/>
<path d="M636.58 650.99H366.24C361.83 650.99 358.246 647.406 358.246 642.996V262.994C358.246 258.584 361.83 255 366.24 255H636.58C640.99 255 644.574 258.584 644.574 262.994V642.996C644.574 647.406 640.99 650.99 636.58 650.99ZM366.24 255.35C362.026 255.35 358.596 258.78 358.596 262.994V642.996C358.596 647.21 362.026 650.64 366.24 650.64H636.58C640.794 650.64 644.224 647.21 644.224 642.996V262.994C644.224 258.78 640.794 255.35 636.58 255.35H366.24Z" fill="#F9FAFB"/>
<path d="M700 713.43H0V713.78H700V713.43Z" fill="#F9FAFB"/>
<path d="M167.062 618.72C165.886 605.196 152.082 600.142 135.716 601.57C119.364 602.998 106.652 610.39 107.828 623.9L167.062 618.72Z" fill="#9061BD"/>
<path d="M135.184 595.382C142.772 594.724 145.194 588.312 144.536 580.71C143.878 573.122 140.378 567.228 132.776 567.886C125.188 568.544 122.766 574.956 123.424 582.558C124.096 590.16 127.596 596.054 135.184 595.382Z" fill="#9061BD"/>
<path d="M476.14 330.628C476.504 334.814 473.41 338.51 469.224 338.874C465.038 339.238 461.342 336.144 460.978 331.958C460.614 327.772 463.708 324.076 467.894 323.712C472.08 323.348 475.776 326.442 476.14 330.628Z" fill="#7439AD"/>
<path d="M518.238 326.946C518.602 331.132 515.508 334.828 511.322 335.192C507.136 335.556 503.44 332.462 503.076 328.276C502.712 324.09 505.806 320.394 509.992 320.03C514.192 319.666 517.874 322.76 518.238 326.946Z" fill="#7439AD"/>
<path d="M560.35 323.264C560.714 327.45 557.62 331.146 553.434 331.51C549.248 331.874 545.552 328.78 545.188 324.594C544.824 320.408 547.918 316.712 552.104 316.348C556.29 315.97 559.972 319.078 560.35 323.264Z" fill="#7439AD"/>
<path d="M479.892 373.538C480.256 377.724 477.162 381.42 472.976 381.784C468.79 382.148 465.094 379.054 464.73 374.868C464.366 370.682 467.46 366.986 471.646 366.622C475.832 366.258 479.528 369.352 479.892 373.538Z" fill="#7439AD"/>
<path d="M521.99 369.856C522.354 374.042 519.26 377.738 515.074 378.102C510.888 378.466 507.192 375.372 506.828 371.186C506.464 367 509.558 363.304 513.744 362.94C517.944 362.576 521.626 365.67 521.99 369.856Z" fill="#7439AD"/>
<path d="M564.102 366.174C564.466 370.36 561.372 374.056 557.186 374.42C553 374.784 549.304 371.69 548.94 367.504C548.576 363.318 551.67 359.622 555.856 359.258C560.042 358.894 563.738 361.988 564.102 366.174Z" fill="#7439AD"/>
<path d="M483.644 416.448C484.008 420.634 480.914 424.33 476.728 424.694C472.542 425.058 468.846 421.964 468.482 417.778C468.118 413.592 471.212 409.896 475.398 409.532C479.598 409.168 483.28 412.262 483.644 416.448Z" fill="#7439AD"/>
<path d="M525.756 412.766C526.12 416.952 523.026 420.648 518.84 421.012C514.654 421.376 510.958 418.282 510.594 414.096C510.23 409.91 513.324 406.214 517.51 405.85C521.696 405.486 525.378 408.58 525.756 412.766Z" fill="#7439AD"/>
<path d="M567.854 409.084C568.218 413.27 565.124 416.966 560.938 417.33C556.752 417.694 553.056 414.6 552.692 410.414C552.328 406.228 555.422 402.532 559.608 402.168C563.794 401.804 567.49 404.898 567.854 409.084Z" fill="#7439AD"/>
<path d="M558.754 411.562L472.248 419.136L548.94 325.938L470.358 332.812C469.434 332.896 468.636 332.21 468.552 331.3C468.468 330.376 469.154 329.578 470.064 329.494L556.57 321.92L479.878 415.118L558.46 408.244C559.384 408.16 560.182 408.846 560.266 409.756C560.35 410.666 559.678 411.478 558.754 411.562Z" fill="#7439AD"/>
<path d="M560.084 577.91C559.804 577.084 559.062 576.468 558.194 576.412C554.232 576.146 550.872 574.662 548.226 572.002C544.768 568.53 542.738 563.238 542.402 556.966C542.346 555.79 541.366 554.88 540.19 554.88C538.888 554.866 537.866 555.972 537.936 557.26C538.342 564.624 540.82 570.91 545.062 575.166C548.366 578.484 552.636 580.43 557.494 580.85C557.578 580.864 557.69 580.864 557.816 580.878C559.398 581.018 560.616 579.436 560.084 577.91Z" fill="#7439AD"/>
<path d="M555.604 604.79C537.054 603.166 523.67 590.524 519.428 570.784C519.162 569.524 519.96 568.292 521.234 568.068C522.41 567.858 523.544 568.614 523.796 569.776C527.59 587.528 539.504 598.896 555.996 600.338C574.084 601.92 593.502 590.02 596.974 560.032C597.114 558.814 598.178 557.918 599.396 558.03C600.642 558.142 601.58 559.248 601.426 560.494C598.108 588.746 579.516 606.876 555.604 604.79Z" fill="#7439AD"/>
<path d="M520.604 551.114C519.358 551.002 518.42 549.896 518.574 548.65C521.906 520.37 540.498 502.24 564.41 504.34C585.354 506.174 599.466 521.854 601.678 545.472C601.79 546.718 600.824 547.81 599.578 547.88C598.36 547.95 597.324 547.026 597.212 545.822C595.196 524.542 582.624 510.444 564.032 508.806C545.944 507.224 526.526 519.124 523.054 549.112C522.886 550.316 521.822 551.226 520.604 551.114Z" fill="#7439AD"/>
<path d="M556.514 592.792C553.07 592.484 549.836 591.686 546.854 590.384C545.65 589.852 545.146 588.396 545.776 587.248C546.322 586.24 547.554 585.806 548.604 586.268C551.39 587.5 554.484 588.214 557.802 588.396C571.522 589.18 585.998 579.464 587.412 556C588.28 541.538 583.338 529.862 574.084 524.276C573.09 523.674 572.726 522.428 573.23 521.378C573.804 520.202 575.288 519.768 576.408 520.44C587.104 526.894 592.858 540.082 591.878 556.252C590.506 578.89 576.394 593.94 557.536 592.862C557.214 592.848 556.864 592.82 556.514 592.792Z" fill="#7439AD"/>
<path d="M536.578 578.82C535.5 579.562 534.016 579.212 533.358 578.078C529.382 571.218 527.534 562.356 528.108 552.85C529.41 531.192 542.402 516.478 560.028 516.198C561.33 516.17 562.394 517.276 562.324 518.578C562.254 519.74 561.316 520.664 560.14 520.678C547.064 520.93 533.932 530.814 532.588 553.116C532.07 561.768 533.722 569.762 537.264 575.88C537.838 576.888 537.53 578.176 536.578 578.82Z" fill="#7439AD"/>
<path d="M567.182 577C566.72 575.964 567.126 574.76 568.092 574.172C573.972 570.63 577.598 563.182 577.654 554.222C577.696 547.04 575.624 540.964 571.788 537.114C568.834 534.146 565.012 532.648 560.42 532.662C553.518 532.676 547.932 536.456 544.838 543.12C544.348 544.17 543.144 544.66 542.052 544.268C540.82 543.82 540.232 542.392 540.792 541.202C544.628 533.026 551.81 528.21 560.42 528.182C566.16 528.168 571.186 530.17 574.966 533.964C579.656 538.668 582.204 545.878 582.148 554.264C582.078 564.848 577.626 573.724 570.36 578.064C569.212 578.736 567.714 578.218 567.182 577Z" fill="#7439AD"/>
<path d="M551.054 560.536C549.78 561.054 548.352 560.312 548.03 558.982C547.876 558.38 547.764 557.75 547.666 557.106C546.392 548.734 550.9 541.44 558.138 540.138C561.876 539.466 565.208 540.348 567.756 542.616C568.792 543.54 568.708 545.192 567.588 545.99L567.448 546.088C566.594 546.69 565.488 546.564 564.69 545.878C563.178 544.576 561.246 544.128 558.936 544.534C553.42 545.514 551.32 551.254 552.104 556.42C552.174 556.924 552.272 557.414 552.384 557.876C552.65 558.982 552.104 560.116 551.054 560.536Z" fill="#7439AD"/>
<path d="M558.46 569.16H558.446C556.906 569.02 556.052 567.298 556.878 565.982L557.074 565.674C557.494 565.016 558.222 564.652 559.006 564.708C559.664 564.75 560.378 564.708 561.106 564.582C565.922 563.714 568.134 559.234 568.092 554.67C568.078 553.536 568.876 552.556 569.996 552.374C571.312 552.178 572.558 553.158 572.572 554.488C572.712 561.796 568.4 567.83 561.89 568.992C560.7 569.202 559.552 569.258 558.46 569.16Z" fill="#7439AD"/>
<path d="M559.454 560.886C557.074 560.676 555.296 559.066 554.638 556.77C554.26 555.44 555.38 554.152 556.752 554.278L557.27 554.32C558.068 554.39 558.726 554.936 558.992 555.692C559.118 556.056 559.37 556.378 559.832 556.42C560.91 556.518 561.092 554.964 561.12 554.656C561.134 554.432 561.19 553.578 560.812 553.074C560.448 552.584 560.21 552.01 560.266 551.394C560.434 549.406 562.954 548.594 564.228 550.148C565.236 551.38 565.754 553.102 565.586 555.048C565.278 558.716 562.688 561.166 559.454 560.886Z" fill="#7439AD"/>
<path d="M517.342 510.78C516.11 510.668 515.2 509.59 515.312 508.358L517.006 488.94L536.424 490.634C537.656 490.746 538.566 491.824 538.454 493.056C538.342 494.288 537.264 495.198 536.032 495.1L521.08 493.798L519.778 508.75C519.666 509.982 518.574 510.892 517.342 510.78Z" fill="#7439AD"/>
<path d="M609.644 518.858C608.412 518.746 607.502 517.668 607.614 516.436L608.916 501.484L593.964 500.182C592.732 500.07 591.822 498.992 591.934 497.76C592.046 496.528 593.124 495.618 594.356 495.73L613.774 497.424L612.08 516.842C611.968 518.046 610.876 518.97 609.644 518.858Z" fill="#7439AD"/>
<path d="M602.77 623.228L583.352 621.534C582.12 621.422 581.21 620.344 581.322 619.112C581.434 617.88 582.512 616.97 583.744 617.082L598.696 618.384L599.998 603.432C600.11 602.2 601.188 601.29 602.42 601.388C603.652 601.5 604.562 602.578 604.464 603.81L602.77 623.228Z" fill="#7439AD"/>
<path d="M525.42 616.452L506.002 614.758L507.696 595.34C507.808 594.108 508.886 593.198 510.118 593.296C511.35 593.408 512.26 594.486 512.148 595.718L510.846 610.67L525.798 611.972C527.03 612.084 527.94 613.162 527.842 614.394C527.73 615.654 526.652 616.564 525.42 616.452Z" fill="#7439AD"/>
<path d="M104.622 574.438C103.866 574.508 103.194 573.948 103.124 573.192L102.074 561.25L114.016 560.2C114.772 560.13 115.444 560.69 115.514 561.446C115.584 562.202 115.024 562.874 114.268 562.944L105.084 563.742L105.882 572.926C105.938 573.71 105.378 574.382 104.622 574.438Z" fill="#7439AD"/>
<path d="M161.378 569.482C160.622 569.552 159.95 568.992 159.88 568.236L159.082 559.052L149.898 559.85C149.142 559.92 148.47 559.36 148.4 558.604C148.33 557.848 148.89 557.176 149.646 557.106L161.588 556.056L162.638 567.998C162.694 568.74 162.134 569.412 161.378 569.482Z" fill="#7439AD"/>
<path d="M167.258 620.876L155.316 621.926C154.56 621.996 153.888 621.436 153.818 620.68C153.748 619.924 154.308 619.252 155.064 619.182L164.248 618.384L163.45 609.2C163.38 608.444 163.94 607.772 164.696 607.702C165.452 607.632 166.124 608.192 166.194 608.948L167.258 620.876Z" fill="#7439AD"/>
<path d="M119.686 625.034L107.744 626.084L106.694 614.142C106.624 613.386 107.184 612.714 107.94 612.644C108.696 612.574 109.368 613.134 109.438 613.89L110.236 623.074L119.42 622.276C120.176 622.206 120.848 622.766 120.918 623.522C121.016 624.292 120.456 624.964 119.686 625.034Z" fill="#7439AD"/>
<path d="M160.412 375.4L114.73 379.39L113.792 368.694C112.826 357.606 121.058 347.792 132.146 346.826C143.234 345.86 153.048 354.092 154.014 365.18L154.56 371.396L161.154 370.822L160.608 364.606C159.32 349.878 146.3 338.944 131.572 340.232C116.844 341.52 105.924 354.554 107.212 369.282L108.15 380.034C102.83 381.07 99.05 385.97 99.526 391.486L102.788 428.782C103.306 434.676 108.5 439.044 114.408 438.526L165.55 434.046C171.444 433.528 175.812 428.334 175.294 422.426L172.032 385.13C171.514 379.236 166.32 374.882 160.412 375.4ZM141.008 404.142L142.128 416.98C142.31 419.094 140.756 420.942 138.642 421.138C136.528 421.32 134.68 419.766 134.484 417.652L133.364 404.814C131.684 403.778 130.494 402.014 130.298 399.9C129.99 396.344 132.608 393.222 136.164 392.914C139.706 392.606 142.842 395.224 143.15 398.78C143.36 400.88 142.478 402.826 141.008 404.142Z" fill="#7439AD"/>
<path d="M238.616 397.016L233.996 389.484C231.49 389.834 229.446 389.834 226.94 389.484L222.32 397.016L221.438 396.778C218.456 395.98 215.586 394.79 212.898 393.236L212.1 392.774L214.06 384.598C214.214 383.94 214.886 383.534 215.544 383.688C216.202 383.842 216.608 384.514 216.454 385.172L214.928 391.542C216.93 392.634 219.016 393.502 221.186 394.146L225.694 386.796L226.506 386.936C229.124 387.37 231.784 387.37 234.402 386.936L235.214 386.796L239.722 394.146C241.878 393.502 243.978 392.634 245.98 391.542L243.978 383.17L244.65 382.694C246.484 381.378 248.108 379.824 249.508 378.06C249.928 377.542 250.67 377.416 251.202 377.808C251.762 378.214 251.902 379.012 251.468 379.558C250.096 381.294 248.514 382.848 246.75 384.206L248.808 392.788L248.01 393.25C245.322 394.804 242.452 395.994 239.47 396.792L238.616 397.016ZM210.308 380.58C209.916 380.132 209.538 379.684 209.188 379.208L200.606 381.266L200.144 380.468C198.59 377.78 197.4 374.91 196.602 371.928L196.364 371.046L203.896 366.426C203.728 365.166 203.644 364.018 203.644 362.898C203.644 361.792 203.728 360.63 203.896 359.37L196.364 354.75L196.602 353.868C197.4 350.886 198.59 348.016 200.144 345.328L200.606 344.53L209.188 346.588C210.63 344.712 212.296 343.046 214.172 341.604L212.618 335.108C212.464 334.45 212.87 333.778 213.528 333.624C214.186 333.47 214.858 333.876 215.012 334.534L216.944 342.626L216.272 343.116C214.116 344.67 212.24 346.546 210.686 348.702L210.21 349.374L201.824 347.372C200.746 349.374 199.864 351.46 199.234 353.63L206.584 358.138L206.458 358.95C206.22 360.392 206.108 361.68 206.108 362.898C206.108 364.116 206.22 365.404 206.458 366.846L206.598 367.658L199.248 372.166C199.892 374.322 200.76 376.422 201.838 378.424L210.224 376.422L210.7 377.094C211.162 377.724 211.638 378.34 212.156 378.928C212.59 379.418 212.576 380.146 212.1 380.608L212.058 380.65C211.568 381.14 210.77 381.098 210.308 380.58ZM260.344 381.266L257.18 380.51C256.522 380.356 256.116 379.684 256.27 379.026C256.424 378.368 257.096 377.962 257.754 378.116L259.126 378.438C260.204 376.436 261.086 374.35 261.716 372.18L254.366 367.672L254.506 366.86C254.744 365.418 254.856 364.13 254.856 362.912C254.856 361.694 254.744 360.406 254.506 358.964L254.366 358.152L261.716 353.644C261.072 351.488 260.204 349.388 259.126 347.386L250.74 349.388L250.25 348.716C248.696 346.56 246.82 344.684 244.664 343.13L243.992 342.64L245.994 334.254C243.992 333.176 241.906 332.294 239.736 331.65L235.228 339L234.416 338.874C231.798 338.454 229.138 338.454 226.52 338.874L225.708 339L221.2 331.664C220.92 331.748 220.64 331.832 220.36 331.93C219.73 332.14 219.058 331.804 218.834 331.188C218.596 330.544 218.932 329.816 219.59 329.592C220.206 329.396 220.822 329.214 221.438 329.046L222.32 328.808L226.94 336.34C229.446 335.99 231.476 335.99 233.996 336.34L238.616 328.808L239.498 329.046C242.48 329.844 245.35 331.034 248.038 332.588L248.836 333.05L246.778 341.632C248.654 343.074 250.32 344.74 251.762 346.616L260.344 344.558L260.806 345.356C262.36 348.044 263.55 350.914 264.348 353.896L264.586 354.778L257.054 359.398C257.222 360.658 257.306 361.82 257.306 362.926C257.306 364.032 257.222 365.194 257.054 366.454L264.586 371.074L264.348 371.956C263.55 374.938 262.36 377.808 260.806 380.496L260.344 381.266ZM230.132 374.91C223.874 374.728 218.666 369.52 218.484 363.262C218.302 356.962 223.02 351.698 229.096 350.984C229.824 350.9 230.482 351.474 230.482 352.216C230.482 352.832 230.02 353.364 229.404 353.434C224.042 354.036 220.01 359.118 221.13 364.83C221.858 368.54 224.854 371.536 228.564 372.264C234.654 373.454 240.016 368.806 240.016 362.912C240.016 360.938 239.414 359.034 238.294 357.438C237.944 356.934 238.042 356.248 238.504 355.842C239.064 355.352 239.918 355.45 240.338 356.066C241.738 358.068 242.48 360.462 242.48 362.926C242.48 369.646 236.908 375.092 230.132 374.91Z" fill="#7439AD"/>
<path d="M151.634 499.496L148.652 494.638C147.042 494.862 145.712 494.862 144.102 494.638L141.12 499.496L140.546 499.342C138.628 498.824 136.766 498.054 135.03 497.06L134.512 496.766L135.772 491.488C135.87 491.054 136.304 490.802 136.738 490.9C137.172 490.998 137.424 491.432 137.326 491.866L136.332 495.982C137.62 496.682 138.978 497.242 140.378 497.662L143.29 492.916L143.822 493C145.516 493.28 147.238 493.28 148.918 493L149.45 492.916L152.362 497.662C153.762 497.242 155.106 496.682 156.408 495.982L155.106 490.564L155.54 490.256C156.73 489.402 157.78 488.408 158.676 487.26C158.942 486.924 159.418 486.84 159.768 487.092C160.132 487.358 160.216 487.876 159.936 488.226C159.04 489.346 158.018 490.354 156.884 491.222L158.214 496.766L157.696 497.06C155.96 498.068 154.112 498.838 152.18 499.342L151.634 499.496ZM133.35 488.87C133.098 488.59 132.86 488.282 132.622 487.988L127.078 489.318L126.784 488.8C125.776 487.064 125.006 485.216 124.502 483.284L124.348 482.71L129.206 479.728C129.094 478.916 129.038 478.174 129.038 477.446C129.038 476.732 129.094 475.976 129.206 475.164L124.348 472.182L124.502 471.608C125.02 469.69 125.79 467.828 126.784 466.092L127.078 465.574L132.622 466.904C133.546 465.686 134.638 464.608 135.842 463.684L134.834 459.484C134.736 459.064 134.988 458.63 135.422 458.532C135.842 458.434 136.276 458.686 136.374 459.12L137.62 464.342L137.2 464.678C135.814 465.672 134.596 466.89 133.588 468.29L133.28 468.724L127.862 467.422C127.162 468.71 126.602 470.068 126.182 471.468L130.928 474.38L130.844 474.912C130.69 475.85 130.62 476.676 130.62 477.46C130.62 478.244 130.69 479.084 130.844 480.008L130.928 480.54L126.182 483.452C126.602 484.852 127.162 486.21 127.862 487.498L133.28 486.196L133.588 486.63C133.882 487.036 134.204 487.442 134.526 487.82C134.806 488.142 134.792 488.604 134.498 488.898L134.47 488.926C134.162 489.234 133.644 489.206 133.35 488.87ZM165.676 489.318L163.632 488.828C163.198 488.73 162.946 488.296 163.044 487.862C163.142 487.428 163.576 487.176 164.01 487.274L164.892 487.484C165.592 486.196 166.152 484.838 166.572 483.438L161.826 480.526L161.91 479.994C162.064 479.056 162.134 478.23 162.134 477.446C162.134 476.662 162.064 475.822 161.91 474.898L161.826 474.366L166.572 471.454C166.152 470.054 165.592 468.696 164.892 467.408L159.474 468.71L159.166 468.276C158.172 466.89 156.954 465.672 155.554 464.664L155.12 464.342L156.422 458.924C155.134 458.224 153.776 457.664 152.376 457.244L149.464 461.99L148.932 461.906C147.238 461.626 145.516 461.626 143.822 461.906L143.29 461.99L140.378 457.244C140.196 457.3 140.014 457.356 139.832 457.412C139.426 457.538 138.992 457.328 138.852 456.922C138.698 456.502 138.922 456.026 139.342 455.886C139.734 455.76 140.14 455.634 140.532 455.536L141.106 455.382L144.088 460.24C145.712 460.016 147.014 460.016 148.638 460.24L151.62 455.382L152.194 455.536C154.112 456.054 155.974 456.824 157.71 457.818L158.228 458.112L156.898 463.656C158.116 464.58 159.194 465.672 160.118 466.876L165.662 465.546L165.956 466.064C166.964 467.8 167.734 469.648 168.238 471.58L168.392 472.154L163.534 475.136C163.646 475.948 163.702 476.69 163.702 477.418C163.702 478.132 163.646 478.888 163.534 479.7L168.392 482.682L168.238 483.256C167.72 485.174 166.95 487.036 165.956 488.772L165.676 489.318ZM146.16 485.216C142.114 485.104 138.754 481.73 138.628 477.698C138.516 473.624 141.554 470.222 145.488 469.774C145.964 469.718 146.384 470.096 146.384 470.572C146.384 470.978 146.09 471.314 145.684 471.356C142.226 471.748 139.622 475.024 140.336 478.72C140.812 481.114 142.744 483.046 145.138 483.522C149.072 484.292 152.53 481.282 152.53 477.488C152.53 476.214 152.138 474.982 151.41 473.946C151.186 473.624 151.242 473.176 151.536 472.91C151.9 472.588 152.446 472.658 152.726 473.05C153.622 474.338 154.112 475.892 154.112 477.474C154.126 481.814 150.528 485.328 146.16 485.216Z" fill="#7439AD"/>
<path d="M350 775.884C499.915 775.884 621.446 768.789 621.446 760.036C621.446 751.283 499.915 744.188 350 744.188C200.085 744.188 78.554 751.283 78.554 760.036C78.554 768.789 200.085 775.884 350 775.884Z" fill="#1E293B"/>
<path d="M508.83 382.218H463.246L431.004 750.768H476.588C489.552 750.768 501.018 740.226 502.152 727.262L530.278 405.738C531.412 392.774 521.794 382.218 508.83 382.218Z" fill="#145D8A"/>
<path d="M499.534 382.218H345.254C332.29 382.218 320.824 392.76 319.69 405.724L291.564 727.248C290.43 740.212 300.048 750.754 313.012 750.754H467.292C480.256 750.754 491.722 740.212 492.856 727.248L520.982 405.724C522.116 392.774 512.498 382.218 499.534 382.218Z" fill="#219BE6"/>
<path d="M498.876 389.75H458.206C455.812 389.75 453.558 391.318 452.662 393.628C449.372 402.126 441.042 407.95 432.18 407.95H408.128C399.252 407.95 391.944 402.126 390.152 393.628C389.662 391.332 387.688 389.75 385.294 389.75H344.624C335.804 389.75 328.02 396.904 327.25 405.724L299.124 727.248C298.354 736.068 304.878 743.222 313.698 743.222H467.978C476.798 743.222 484.582 736.068 485.352 727.248L513.478 405.724C514.22 396.904 507.696 389.75 498.876 389.75Z" fill="#CAE7F9"/>
<path d="M460.432 564.414H352.464C349.258 564.414 346.892 561.824 347.172 558.618L347.718 552.444C347.998 549.238 350.826 546.648 354.018 546.648H461.986C465.192 546.648 467.558 549.238 467.278 552.444L466.732 558.618C466.466 561.81 463.638 564.414 460.432 564.414Z" fill="#F9FAFB"/>
<path d="M458.108 591.07H350.14C346.934 591.07 344.568 588.48 344.848 585.274L345.394 579.1C345.674 575.894 348.502 573.304 351.694 573.304H459.662C462.868 573.304 465.234 575.894 464.954 579.1L464.408 585.274C464.128 588.466 461.3 591.07 458.108 591.07Z" fill="#F9FAFB"/>
<path opacity="0.1" d="M427.63 395.784C427.322 399.34 424.186 402.21 420.644 402.21C417.088 402.21 414.47 399.326 414.778 395.784C415.086 392.228 418.222 389.358 421.764 389.358C425.32 389.358 427.938 392.228 427.63 395.784Z" fill="black"/>
<path opacity="0.1" d="M424.718 395.784C424.55 397.73 422.842 399.298 420.896 399.298C418.95 399.298 417.522 397.73 417.69 395.784C417.858 393.838 419.566 392.27 421.512 392.27C423.444 392.27 424.886 393.838 424.718 395.784Z" fill="black"/>
<g opacity="0.8">
<path d="M479.878 406.494C478.842 406.494 478.072 405.654 478.156 404.604L478.464 401.16C478.562 400.124 479.472 399.27 480.508 399.27C481.544 399.27 482.314 400.11 482.23 401.16L481.922 404.604C481.838 405.654 480.914 406.494 479.878 406.494Z" fill="#219BE6"/>
<path d="M494.942 406.494C493.906 406.494 493.136 405.654 493.22 404.604L493.92 396.526C494.018 395.49 494.928 394.636 495.964 394.636C497 394.636 497.77 395.476 497.686 396.526L496.986 404.604C496.902 405.654 495.978 406.494 494.942 406.494Z" fill="#219BE6"/>
<path d="M487.41 406.494C486.374 406.494 485.604 405.654 485.688 404.604L486.192 398.85C486.29 397.814 487.2 396.96 488.236 396.96C489.272 396.96 490.042 397.8 489.958 398.85L489.454 404.604C489.37 405.654 488.446 406.494 487.41 406.494Z" fill="#219BE6"/>
</g>
<g opacity="0.8">
<path d="M350.896 406.494H341.432C340.844 406.494 340.41 406.018 340.466 405.43L340.914 400.348C340.97 399.76 341.488 399.284 342.076 399.284H351.54C352.128 399.284 352.562 399.76 352.506 400.348L352.058 405.43C352.002 406.018 351.484 406.494 350.896 406.494Z" fill="#219BE6"/>
<path d="M355.278 405.122C354.69 405.122 354.256 404.646 354.312 404.058L354.522 401.734C354.578 401.146 355.096 400.67 355.684 400.67C356.272 400.67 356.706 401.146 356.65 401.734L356.44 404.058C356.384 404.646 355.866 405.122 355.278 405.122Z" fill="#219BE6"/>
</g>
<path d="M442.655 523.795C461.495 505.761 463.375 477.15 446.854 459.89C430.332 442.631 401.666 443.259 382.826 461.293C363.986 479.328 362.106 507.939 378.627 525.198C395.149 542.458 423.815 541.83 442.655 523.795Z" fill="#F9FAFB"/>
<path d="M412.888 490.802C401.002 490.802 390.978 495.324 390.124 505.138L389.172 516.03H432.194L433.146 505.138C434 495.31 424.774 490.802 412.888 490.802Z" fill="#7439AD"/>
<path d="M413.28 486.308C418.796 486.308 421.33 481.842 421.82 476.326C422.296 470.81 420.546 466.344 415.03 466.344C409.514 466.344 406.98 470.81 406.49 476.326C406.014 481.842 407.764 486.308 413.28 486.308Z" fill="#7439AD"/>
<path d="M455.504 555.202C452.564 555.202 450.1 556.322 449.876 558.744L449.638 561.432H460.264L460.502 558.744C460.726 556.322 458.444 555.202 455.504 555.202Z" fill="#219BE6"/>
<path d="M455.602 554.096C456.96 554.096 457.59 552.99 457.716 551.632C457.842 550.274 457.394 549.168 456.036 549.168C454.678 549.168 454.048 550.274 453.922 551.632C453.81 552.99 454.244 554.096 455.602 554.096Z" fill="#219BE6"/>
<path d="M422.786 617.726H380.772C375.858 617.726 372.232 613.75 372.666 608.836C373.1 603.922 377.426 599.946 382.326 599.946H424.34C429.254 599.946 432.88 603.922 432.446 608.836C432.026 613.736 427.7 617.726 422.786 617.726Z" fill="#145D8A"/>
<path d="M417.718 716.804H372.75C367.57 716.804 363.734 712.604 364.182 707.41L367.052 674.608C367.5 669.428 372.078 665.214 377.258 665.214H422.226C427.406 665.214 431.242 669.414 430.794 674.608L427.924 707.41C427.476 712.604 422.912 716.804 417.718 716.804Z" fill="#145D8A"/>
<path d="M403.858 682.91C404.138 679.788 401.828 677.254 398.706 677.254C395.584 677.254 392.84 679.788 392.56 682.91C392.392 684.772 393.162 686.396 394.464 687.432L393.47 698.73C393.302 700.578 394.674 702.09 396.536 702.09C398.384 702.09 400.022 700.592 400.19 698.73L401.184 687.432C402.64 686.41 403.69 684.772 403.858 682.91Z" fill="#AFDBF6"/>
<path d="M422.632 672.06H416.836L418.25 655.834C419.104 646.09 411.866 638.152 402.108 638.152C392.35 638.152 383.726 646.09 382.872 655.834L381.458 672.06H375.662L377.076 655.834C378.21 642.884 389.662 632.356 402.612 632.356C415.562 632.356 425.166 642.884 424.032 655.834L422.632 672.06Z" fill="#145D8A"/>
<path d="M456.218 580.052L456.358 578.498C456.498 576.902 455.322 575.614 453.726 575.614C452.13 575.614 450.73 576.902 450.59 578.498L450.45 580.052C449.82 580.052 449.26 580.57 449.204 581.2L448.84 585.344C448.784 585.974 449.26 586.492 449.89 586.492H455.658C456.288 586.492 456.848 585.974 456.904 585.344L457.268 581.2C457.324 580.57 456.862 580.052 456.218 580.052ZM453.656 576.328C454.86 576.328 455.742 577.308 455.644 578.498L455.504 580.052H451.164L451.304 578.498C451.402 577.294 452.466 576.328 453.656 576.328Z" fill="#219BE6"/>
<path d="M369.39 581.718L367.374 581.298C367.136 581.242 367.01 581.004 367.108 580.766L367.948 578.778C368.13 578.358 367.612 578.036 367.29 578.372L365.764 579.94C365.582 580.122 365.288 580.122 365.148 579.94L363.902 578.372C363.636 578.036 363.062 578.344 363.174 578.778L363.664 580.766C363.72 581.004 363.552 581.256 363.314 581.298L361.228 581.718C360.78 581.802 360.724 582.432 361.158 582.53L363.174 582.95C363.412 583.006 363.538 583.244 363.44 583.482L362.6 585.47C362.418 585.89 362.936 586.212 363.258 585.876L364.784 584.308C364.966 584.126 365.26 584.126 365.4 584.308L366.646 585.876C366.912 586.212 367.486 585.904 367.374 585.47L366.884 583.482C366.828 583.244 366.996 582.992 367.234 582.95L369.32 582.53C369.768 582.432 369.824 581.802 369.39 581.718Z" fill="#1E293B"/>
<path d="M382.634 581.718L380.618 581.298C380.38 581.242 380.254 581.004 380.352 580.766L381.192 578.778C381.374 578.358 380.856 578.036 380.534 578.372L379.008 579.94C378.826 580.122 378.532 580.122 378.392 579.94L377.146 578.372C376.88 578.036 376.306 578.344 376.418 578.778L376.908 580.766C376.964 581.004 376.796 581.256 376.558 581.298L374.472 581.718C374.024 581.802 373.968 582.432 374.402 582.53L376.418 582.95C376.656 583.006 376.782 583.244 376.684 583.482L375.844 585.47C375.662 585.89 376.18 586.212 376.502 585.876L378.028 584.308C378.21 584.126 378.504 584.126 378.644 584.308L379.89 585.876C380.156 586.212 380.73 585.904 380.618 585.47L380.128 583.482C380.072 583.244 380.24 582.992 380.478 582.95L382.564 582.53C383.012 582.432 383.068 581.802 382.634 581.718Z" fill="#1E293B"/>
<path d="M395.878 581.718L393.862 581.298C393.624 581.242 393.498 581.004 393.596 580.766L394.436 578.778C394.618 578.358 394.1 578.036 393.778 578.372L392.252 579.94C392.07 580.122 391.776 580.122 391.636 579.94L390.39 578.372C390.124 578.036 389.55 578.344 389.662 578.778L390.152 580.766C390.208 581.004 390.04 581.256 389.802 581.298L387.716 581.718C387.268 581.802 387.212 582.432 387.646 582.53L389.662 582.95C389.9 583.006 390.026 583.244 389.928 583.482L389.088 585.47C388.906 585.89 389.424 586.212 389.746 585.876L391.272 584.308C391.454 584.126 391.748 584.126 391.888 584.308L393.134 585.876C393.4 586.212 393.974 585.904 393.862 585.47L393.372 583.482C393.316 583.244 393.484 582.992 393.722 582.95L395.808 582.53C396.256 582.432 396.312 581.802 395.878 581.718Z" fill="#1E293B"/>
<path d="M409.136 581.718L407.12 581.298C406.882 581.242 406.756 581.004 406.854 580.766L407.694 578.778C407.876 578.358 407.358 578.036 407.036 578.372L405.51 579.94C405.328 580.122 405.034 580.122 404.894 579.94L403.648 578.372C403.382 578.036 402.808 578.344 402.92 578.778L403.41 580.766C403.466 581.004 403.298 581.256 403.06 581.298L400.974 581.718C400.526 581.802 400.47 582.432 400.904 582.53L402.92 582.95C403.158 583.006 403.284 583.244 403.186 583.482L402.346 585.47C402.164 585.89 402.682 586.212 403.004 585.876L404.53 584.308C404.712 584.126 405.006 584.126 405.146 584.308L406.392 585.876C406.658 586.212 407.232 585.904 407.12 585.47L406.63 583.482C406.574 583.244 406.742 582.992 406.98 582.95L409.066 582.53C409.514 582.432 409.57 581.802 409.136 581.718Z" fill="#1E293B"/>
<path d="M422.38 581.718L420.364 581.298C420.126 581.242 420 581.004 420.098 580.766L420.938 578.778C421.12 578.358 420.602 578.036 420.28 578.372L418.754 579.94C418.572 580.122 418.278 580.122 418.138 579.94L416.892 578.372C416.626 578.036 416.052 578.344 416.164 578.778L416.654 580.766C416.71 581.004 416.542 581.256 416.304 581.298L414.218 581.718C413.77 581.802 413.714 582.432 414.148 582.53L416.164 582.95C416.402 583.006 416.528 583.244 416.43 583.482L415.59 585.47C415.408 585.89 415.926 586.212 416.248 585.876L417.774 584.308C417.956 584.126 418.25 584.126 418.39 584.308L419.636 585.876C419.902 586.212 420.476 585.904 420.364 585.47L419.874 583.482C419.818 583.244 419.986 582.992 420.224 582.95L422.31 582.53C422.758 582.432 422.814 581.802 422.38 581.718Z" fill="#1E293B"/>
<path d="M435.624 581.718L433.608 581.298C433.37 581.242 433.244 581.004 433.342 580.766L434.182 578.778C434.364 578.358 433.846 578.036 433.524 578.372L431.998 579.94C431.816 580.122 431.522 580.122 431.382 579.94L430.136 578.372C429.87 578.036 429.296 578.344 429.408 578.778L429.898 580.766C429.954 581.004 429.786 581.256 429.548 581.298L427.462 581.718C427.014 581.802 426.958 582.432 427.392 582.53L429.408 582.95C429.646 583.006 429.772 583.244 429.674 583.482L428.834 585.47C428.652 585.89 429.17 586.212 429.492 585.876L431.018 584.308C431.2 584.126 431.494 584.126 431.634 584.308L432.88 585.876C433.146 586.212 433.72 585.904 433.608 585.47L433.118 583.482C433.062 583.244 433.23 582.992 433.468 582.95L435.554 582.53C436.002 582.432 436.058 581.802 435.624 581.718Z" fill="#1E293B"/>
<path d="M403.69 552.724H378.812C377.272 552.724 375.9 553.984 375.774 555.524C375.634 557.064 376.782 558.324 378.322 558.324H403.2C404.74 558.324 406.112 557.064 406.238 555.524C406.378 553.97 405.244 552.724 403.69 552.724Z" fill="#1E293B"/>
<path d="M428.946 552.724H414.512C412.972 552.724 411.6 553.984 411.474 555.524C411.334 557.064 412.482 558.324 414.022 558.324H428.456C429.996 558.324 431.368 557.064 431.494 555.524C431.634 553.97 430.486 552.724 428.946 552.724Z" fill="#1E293B"/>
<path d="M448 679.634C438.62 683.386 430.402 688.846 424.774 695.048C421.47 692.234 416.78 690.288 411.166 689.392L410.508 689.294L410.214 692.598L410.578 692.738C416.122 694.838 420.644 698.562 423.64 703.504L424.116 704.274L424.634 703.448C430.402 694.208 438.816 686.48 448.322 681.664L448.644 681.496L448.84 679.298L448 679.634Z" fill="#1E293B"/>
<path opacity="0.2" d="M322.896 403.988C321.146 407.068 319.998 410.498 319.676 414.138L298.83 652.446H363.342L376.306 602.76L372.036 553.074L385 503.388L380.73 453.702L393.694 404.016H322.896V403.988Z" fill="black"/>
<path d="M375.13 439.674L388.094 389.988H224.952L212.002 439.674L216.258 489.374L203.308 539.06L207.564 588.746L194.614 638.446H357.742L370.706 588.746L366.436 539.06L379.4 489.374L375.13 439.674Z" fill="#219BE6"/>
<path d="M375.13 439.674L388.094 389.988H224.952L212.002 439.674L216.258 489.374L203.308 539.06L207.564 588.746L194.614 638.446H357.742L370.706 588.746L366.436 539.06L379.4 489.374L375.13 439.674Z" fill="#F9FAFB"/>
<path d="M375.13 439.674H212.002L224.952 389.988H388.094L375.13 439.674Z" fill="#E4F3FC"/>
<path d="M366.436 539.06H203.308L216.258 489.374H379.4L366.436 539.06Z" fill="#E4F3FC"/>
<path d="M357.742 638.446H194.614L207.564 588.746H370.706L357.742 638.446Z" fill="#E4F3FC"/>
<path opacity="0.2" d="M353.304 460.45C351.904 460.884 350.112 461.15 348.152 461.15C345.268 461.15 342.748 460.576 341.306 459.722C340.914 459.484 340.48 459.372 340.046 459.372C339.64 459.372 339.248 459.484 338.87 459.694C338.842 459.708 338.814 459.708 338.786 459.736C338.772 459.75 338.758 459.75 338.73 459.764C338.198 460.072 337.526 460.352 336.742 460.562C335.398 460.94 333.732 461.164 331.94 461.164C331.45 461.164 330.974 461.15 330.512 461.122C329.112 461.024 327.838 460.8 326.788 460.464C326.606 460.408 326.424 460.366 326.242 460.366C324.968 460.282 323.834 461.262 323.834 462.606V464.118H260.4C255.486 464.118 251.51 468.094 251.51 473.008V481.968C251.51 486.882 255.486 490.858 260.4 490.858H332.542C332.696 490.858 332.85 490.844 333.018 490.83C333.802 491.474 334.6 492.118 335.468 492.762C336.49 493.546 337.582 494.33 338.716 495.156C339.5 495.73 340.592 495.73 341.376 495.156C350.448 488.576 356.272 484.04 356.272 471.566V462.606C356.258 461.038 354.774 459.988 353.304 460.45Z" fill="black"/>
<path d="M331.17 485.888H259.028C254.114 485.888 250.138 481.912 250.138 476.998V468.038C250.138 463.124 254.114 459.148 259.028 459.148H331.17C336.084 459.148 340.06 463.124 340.06 468.038V476.998C340.046 481.912 336.07 485.888 331.17 485.888Z" fill="#7439AD"/>
<path d="M346.766 456.208C343.882 456.208 341.362 455.634 339.92 454.78C339.122 454.304 338.184 454.304 337.4 454.78C335.958 455.634 333.424 456.208 330.554 456.208C328.594 456.208 326.802 455.942 325.402 455.508C323.932 455.046 322.448 456.11 322.448 457.636V466.596C322.448 479.07 328.272 483.606 337.344 490.186C338.128 490.76 339.22 490.76 340.004 490.186C349.076 483.606 354.9 479.07 354.9 466.596V457.636C354.9 456.096 353.402 455.046 351.946 455.508C350.518 455.956 348.726 456.208 346.766 456.208Z" fill="#AC88CE"/>
<path opacity="0.3" d="M346.766 456.208C343.882 456.208 341.362 455.634 339.92 454.78C339.122 454.304 338.184 454.304 337.4 454.78C335.958 455.634 333.424 456.208 330.554 456.208C328.594 456.208 326.802 455.942 325.402 455.508C323.932 455.046 322.448 456.11 322.448 457.636V466.596C322.448 479.07 328.272 483.606 337.344 490.186C338.128 490.76 339.22 490.76 340.004 490.186C349.076 483.606 354.9 479.07 354.9 466.596V457.636C354.9 456.096 353.402 455.046 351.946 455.508C350.518 455.956 348.726 456.208 346.766 456.208Z" fill="#F9FAFB"/>
<path opacity="0.2" d="M337.4 454.78C335.958 455.634 333.424 456.208 330.554 456.208C328.594 456.208 326.802 455.942 325.402 455.508C323.932 455.046 322.448 456.11 322.448 457.636V466.596C322.448 479.07 328.272 483.606 337.344 490.186C337.736 490.466 338.212 490.62 338.674 490.62V454.43C338.226 454.43 337.792 454.556 337.4 454.78Z" fill="#F9FAFB"/>
<path d="M351.666 464.16C345.8 466.582 340.788 470.124 337.498 474.142C335.202 472.322 332.052 471.062 328.356 470.488L327.922 470.418V472.56L328.174 472.644C331.884 474.002 335.02 476.41 337.246 479.616L337.596 480.12L337.89 479.574C341.096 473.596 346.108 468.584 351.988 465.462L352.184 465.35V463.922L351.666 464.16Z" fill="#1E293B"/>
<path d="M385.21 403.96H379.022C375.592 403.96 373.044 401.174 373.352 397.744L373.898 391.556C374.192 388.126 377.23 385.34 380.66 385.34H386.848C390.278 385.34 392.826 388.126 392.518 391.556L391.972 397.744C391.664 401.188 388.64 403.96 385.21 403.96Z" fill="#7439AD"/>
<path d="M387.786 391.542L386.442 390.072L383.054 393.18L380.226 390.072L378.616 391.542L381.458 394.65L378.084 397.758L379.428 399.242L382.802 396.134L385.644 399.242L387.24 397.758L384.398 394.65L387.786 391.542Z" fill="#F9FAFB"/>
<path d="M246.918 457.356C250.502 461.262 253.932 465.294 257.32 469.382C260.708 473.456 264.012 477.6 267.274 481.786C267.414 481.968 267.358 481.898 267.4 481.954C267.414 481.982 267.414 482.024 267.442 482.038C267.484 482.08 267.498 482.15 267.54 482.178C267.61 482.276 267.694 482.36 267.792 482.458C267.988 482.64 268.268 482.766 268.562 482.822C268.716 482.85 268.87 482.864 269.038 482.85C269.122 482.864 269.206 482.836 269.29 482.836C269.332 482.836 269.374 482.808 269.416 482.808C269.486 482.78 269.444 482.836 269.64 482.724L273.14 480.82C277.844 478.328 282.59 475.892 287.49 473.708L291.592 478.79C287.644 482.43 283.528 486.966 279.37 490.298L276.234 492.762C276.15 492.832 275.814 493.056 275.604 493.196C275.366 493.35 275.128 493.518 274.876 493.658C274.372 493.938 273.854 494.218 273.308 494.428C272.23 494.89 271.082 495.184 269.92 495.366C267.582 495.716 265.16 495.478 262.892 494.666C261.758 494.26 260.666 493.714 259.672 493.028C259.168 492.692 258.692 492.314 258.23 491.922C257.992 491.726 257.782 491.516 257.572 491.306L257.012 490.746C253.302 486.952 249.648 483.116 246.064 479.196C242.48 475.29 238.938 471.342 235.55 467.268L246.918 457.356Z" fill="#FFC480"/>
<path d="M285.586 476.802L288.848 466.316L297.444 470.6C297.444 470.6 296.198 478.244 289.94 479.574L285.586 476.802Z" fill="#FFC480"/>
<path d="M292.292 463.418L300.048 465.546L297.444 470.6L288.848 466.316L292.292 463.418Z" fill="#FFC480"/>
<path d="M201.726 460.212C200.788 464.664 199.654 469.074 198.45 473.456C197.26 477.852 195.958 482.22 194.6 486.56L194.096 488.198L193.844 489.01C193.788 489.192 193.76 489.234 193.704 489.346C193.55 489.752 193.452 490.214 193.438 490.676C193.41 491.614 193.634 492.65 194.25 493.546C194.306 493.686 194.782 494.204 195.16 494.61L196.322 495.87L198.618 498.432C200.13 500.168 201.628 501.904 203.056 503.724L198.184 509.366C196.168 508.218 194.236 506.986 192.304 505.74L189.434 503.85L188.02 502.884C187.544 502.548 187.152 502.324 186.382 501.68C183.722 499.426 181.734 496.22 181.006 492.65C180.628 490.872 180.544 489.024 180.754 487.19C180.81 486.756 180.894 486.238 180.964 485.86L181.118 485.02L181.412 483.34C182.196 478.846 183.036 474.366 183.974 469.928C184.912 465.476 185.906 461.038 187.11 456.642L201.726 460.212Z" fill="#FFC480"/>
<path d="M198.282 503.346L204.064 500.392L206.612 510.206C206.612 510.206 201.978 511.984 198.394 509.702L198.282 503.346Z" fill="#FFC480"/>
<path d="M212.03 497.256L212.296 506.258L205.842 510.486L203.602 500.588L212.03 497.256Z" fill="#FFC480"/>
<path d="M230.916 413.928C231.056 414.628 231.532 415.104 231.994 415.02C232.442 414.922 232.694 414.292 232.554 413.592C232.414 412.892 231.924 412.416 231.476 412.5C231.028 412.598 230.776 413.228 230.916 413.928Z" fill="#1E293B"/>
<path d="M231.476 415.118C231.476 415.118 233.87 418.8 235.998 420.382C235.004 421.782 232.806 421.684 232.806 421.684L231.476 415.118Z" fill="#A02724"/>
<path d="M227.598 410.582C227.5 410.582 227.402 410.54 227.318 410.47C227.15 410.316 227.136 410.05 227.29 409.882C228.858 408.188 230.748 408.496 230.832 408.51C231.056 408.552 231.21 408.762 231.168 408.986C231.126 409.21 230.916 409.364 230.692 409.322C230.636 409.308 229.152 409.098 227.906 410.442C227.822 410.54 227.71 410.582 227.598 410.582Z" fill="#1E293B"/>
<path d="M210.728 423.686C212.268 430.112 213.808 441.872 208.306 446.156C208.306 446.156 210.462 452.666 225.106 452.666C241.206 452.666 232.806 448.466 232.806 448.466C224.014 446.758 224.252 439.128 225.778 434.13L210.728 423.686Z" fill="#FFC480"/>
<path d="M206.584 447.346C205.618 445.568 204.568 443.524 206.752 442.88C209.16 442.18 224.602 440.878 229.138 442.194C227.738 444.672 230.104 447.724 230.104 447.724L206.584 447.346Z" fill="#1E293B"/>
<path d="M219.38 747.758H229.474L230.482 727.43H220.374L219.38 747.758Z" fill="#FFC480"/>
<path d="M155.274 744.958L165.508 745.49L171.724 725.47L161.49 724.924L155.274 744.958Z" fill="#FFC480"/>
<path d="M165.2 744.678L155.568 742.592C155.218 742.522 154.854 742.69 154.714 743.026L151.368 750.278C151.018 751.034 151.48 751.916 152.292 752.07C155.666 752.742 157.346 752.896 161.588 753.82C164.192 754.38 170.086 755.822 173.684 756.592C177.212 757.348 178.528 753.918 177.128 753.274C170.828 750.39 168.196 747.87 166.502 745.504C166.166 745.084 165.704 744.79 165.2 744.678Z" fill="#7439AD"/>
<path d="M228.942 746.736H219.352C218.988 746.736 218.68 746.988 218.61 747.338L216.874 755.136C216.692 755.948 217.308 756.718 218.134 756.704C221.592 756.648 226.59 756.438 230.93 756.438C236.012 756.438 240.408 756.718 246.358 756.718C249.956 756.718 250.964 753.078 249.452 752.742C242.578 751.244 236.978 751.076 231.042 747.422C230.412 747.016 229.698 746.736 228.942 746.736Z" fill="#7439AD"/>
<path d="M190.008 449.124C182.378 452.75 180.32 474.716 180.32 474.716L199.178 483.424C199.178 483.424 203.854 476.522 204.218 465.686C204.596 454.346 197.806 445.414 190.008 449.124Z" fill="#1E293B"/>
<path opacity="0.4" d="M200.242 462.676C196.84 467.954 197.162 476.144 198.338 483.046L199.178 483.438C199.178 483.438 203.868 476.536 204.218 465.7C204.232 465.028 204.232 464.356 204.218 463.698L200.242 462.676Z" fill="black"/>
<path d="M242.634 448.592C242.634 448.592 251.972 459.148 243.152 524.458C229.012 524.458 203.084 524.458 196.196 524.458C195.874 517.248 200.396 482.094 193.452 448.13C193.452 448.13 201.502 446.52 209.174 446.142C215.18 445.848 223.86 445.666 229.138 446.142C236.082 446.786 242.634 448.592 242.634 448.592Z" fill="#219BE6"/>
<path d="M242.634 448.592C242.634 448.592 251.972 459.148 243.152 524.458C229.012 524.458 203.084 524.458 196.196 524.458C195.874 517.248 200.396 482.094 193.452 448.13C193.452 448.13 201.502 446.52 209.174 446.142C215.18 445.848 223.86 445.666 229.138 446.142C236.082 446.786 242.634 448.592 242.634 448.592Z" fill="#AC88CE"/>
<path opacity="0.2" d="M246.736 468.556L246.554 468.402L237.216 463.418C236.264 477.796 242.69 486.812 246.512 490.746C247.058 481.534 247.044 474.268 246.736 468.556Z" fill="black"/>
<path opacity="0.2" d="M230.482 727.43L229.964 737.902H219.856L220.374 727.43H230.482Z" fill="black"/>
<path opacity="0.2" d="M161.49 724.924L171.724 725.47L168.518 735.788L158.284 735.256L161.49 724.924Z" fill="black"/>
<path d="M207.48 417.162C209.734 425.576 210.63 430.616 215.824 434.116C223.636 439.38 233.366 433.332 233.66 424.414C233.94 416.392 230.202 403.974 221.172 402.28C212.268 400.6 205.226 408.734 207.48 417.162Z" fill="#FFC480"/>
<path d="M226.506 524.472C226.506 524.472 216.538 591.56 211.078 616.69C205.086 644.214 172.97 735.27 172.97 735.27L157.262 731.868C157.262 731.868 177.394 657.668 182.42 619.182C184.38 604.174 186.746 579.968 189.742 559.78C192.64 540.236 196.21 524.472 196.21 524.472H226.506Z" fill="#1E293B"/>
<path d="M176.736 730.006C176.806 730.02 173.81 735.69 173.81 735.69L156.128 731.868L157.612 726.548L176.736 730.006Z" fill="#219BE6"/>
<path opacity="0.6" d="M176.736 730.006C176.806 730.02 173.81 735.69 173.81 735.69L156.128 731.868L157.612 726.548L176.736 730.006Z" fill="#F9FAFB"/>
<path opacity="0.6" d="M220.206 548.37C208.684 550.624 209.902 593.59 211.288 615.682C214.606 600.058 219.478 570.014 222.796 548.678C222.04 548.3 221.172 548.174 220.206 548.37Z" fill="black"/>
<path d="M243.152 524.472C243.152 524.472 247.842 590.104 246.876 616.872C245.882 644.718 232.68 735.886 232.68 735.886H217.812C217.812 735.886 217.266 646.342 216.608 619C215.88 589.194 212.282 524.472 212.282 524.472H243.152Z" fill="#1E293B"/>
<path d="M235.55 729.95C235.62 729.95 234.71 736.124 234.71 736.124H216.622L216.132 730.608L235.55 729.95Z" fill="#219BE6"/>
<path opacity="0.6" d="M235.55 729.95C235.62 729.95 234.71 736.124 234.71 736.124H216.622L216.132 730.608L235.55 729.95Z" fill="#F9FAFB"/>
<path d="M237.16 460.884C237.16 478.496 246.54 485.748 246.54 485.748L261.772 470.852C261.772 470.852 256.592 461.934 249.466 453.73C240.66 443.622 237.16 449.558 237.16 460.884Z" fill="#1E293B"/>
<path opacity="0.2" d="M233.128 427.606C232.736 428.684 231.728 430.518 229.18 431.246C225.456 432.31 225.414 435.46 225.414 435.46L225.456 435.516C228.998 434.34 231.952 431.414 233.128 427.606Z" fill="black"/>
<path d="M229.18 400.432C232.316 396.47 227.486 396.288 227.486 396.288C228.746 391.57 223.09 394.104 223.09 394.104C219.702 389.428 217.784 395.112 217.784 395.112C214.27 391.15 213.626 397.618 213.626 397.618C210.098 392.592 208.306 399.844 208.306 399.844C205.058 394.622 203.07 401.426 203.07 401.426C196.364 399.032 199.556 405.99 199.556 405.99C193.83 406.144 198.422 410.582 198.422 410.582C191.562 410.596 197.61 414.53 197.61 414.53C192.164 418.1 198.996 419.066 198.996 419.066C194.558 426.01 202.188 423.434 202.188 423.434C199.094 430.308 205.954 427.284 205.954 427.284C205.506 433.92 209.342 432.114 211.19 430.882C211.54 432.212 212.212 433.64 213.444 433.794C215.838 434.102 216.3 429.594 216.3 429.594C216.3 429.594 218.526 431.316 220.374 430.378C222.236 429.44 221.536 427.074 221.536 427.074C221.536 427.074 222.964 428.138 224.266 427.116C225.064 426.5 225.064 422.034 224.056 420.466L227.696 419.038C227.696 419.038 230.398 418.66 229.194 415.09C227.99 411.52 229.012 408.706 229.012 408.706C233.128 406.774 229.754 404.464 229.754 404.464C234.486 401.412 229.18 400.432 229.18 400.432Z" fill="#1E293B"/>
<path d="M221.802 417.512C222.376 419.724 223.832 421.614 225.344 422.748C227.626 424.442 229.334 422.776 229.166 420.186C229.026 417.862 227.654 414.166 225.134 413.48C222.656 412.808 221.144 414.978 221.802 417.512Z" fill="#FFC480"/>
</g>
<defs>
<filter id="filter0_d_68_261" x="-260.029" y="15.6167" width="975.479" height="978.077" filterUnits="userSpaceOnUse" color-interpolation-filters="sRGB">
<feFlood flood-opacity="0" result="BackgroundImageFix"/>
<feColorMatrix in="SourceAlpha" type="matrix" values="0 0 0 0 0 0 0 0 0 0 0 0 0 0 0 0 0 0 127 0" result="hardAlpha"/>
<feOffset dy="10"/>
<feGaussianBlur stdDeviation="12.5"/>
<feComposite in2="hardAlpha" operator="out"/>
<feColorMatrix type="matrix" values="0 0 0 0 0 0 0 0 0 0 0 0 0 0 0 0 0 0 0.25 0"/>
<feBlend mode="normal" in2="BackgroundImageFix" result="effect1_dropShadow_68_261"/>
<feBlend mode="normal" in="SourceGraphic" in2="effect1_dropShadow_68_261" result="shape"/>
</filter>
<linearGradient id="paint0_linear_68_261" x1="599.5" y1="906.5" x2="126" y2="128" gradientUnits="userSpaceOnUse">
<stop stop-color="#C2E0F2"/>
<stop offset="1" stop-color="white"/>
</linearGradient>
<clipPath id="clip0_68_261">
<rect width="700" height="520.884" fill="white" transform="translate(0 255)"/>
</clipPath>
</defs>
</svg>
