<svg width="50" height="43" viewBox="0 0 50 43" fill="none" xmlns="http://www.w3.org/2000/svg">
<path d="M43.3283 28.0529V19.4897L36.7153 17.195V9.68576L26.6541 6.08171V0H23.3459V6.07599L13.2847 9.68766V17.195L6.67166 19.4916V28.0548L0 30.3876V41.6667H3.30815V31.4873L25.0065 23.898L46.6886 31.4854V41.6648H49.9967V30.3857L43.3283 28.0529ZM16.5961 10.7721L24.9935 7.75699L33.4039 10.7721V16.0476L24.9902 13.1297L16.5961 16.0457V10.7721ZM40.0169 26.8941L36.712 25.7372V21.9807L33.4006 20.8333V24.5803L25.0065 21.6414L16.5929 24.5841V20.8314L13.2847 21.9807V25.7429L9.97981 26.8979V20.5951L24.9902 15.3844L40.0169 20.597V26.8941Z" fill="white"/>
<path d="M43.3283 28.0529V19.4897L36.7153 17.1969V9.68766L26.6541 6.08171V0H25V7.7608L33.4039 10.7721V16.0476L25 13.1335V15.3844L40.0169 20.5932V26.8941L36.7153 25.7391V21.9807L33.4039 20.8333V24.5803L25.0065 21.6414L25 21.6452V23.9018L25.0065 23.898L46.6886 31.4873V41.6667H50V30.3876L43.3283 28.0529Z" fill="white"/>
<path d="M6.67175 41.6667H9.98316V31.5388L6.67175 32.6956V41.6667Z" fill="white"/>
<path d="M33.4039 41.6667H36.7153V30.38L33.4039 29.2212V41.6667Z" fill="white"/>
<path d="M13.2847 41.6667H16.5961V29.225L13.2847 30.3819V41.6667Z" fill="white"/>
<path d="M40.0169 41.6667H43.3283V32.6937L40.0169 31.5369V41.6667Z" fill="white"/>
<path d="M33.4039 41.6667H36.7153V30.38L33.4039 29.2212V41.6667Z" fill="white"/>
<path d="M40.0169 41.6667H43.3283V32.6937L40.0169 31.5369V41.6667Z" fill="white"/>
</svg>
