<svg width="721" height="988" viewBox="0 0 721 988" fill="none" xmlns="http://www.w3.org/2000/svg">
<g filter="url(#filter0_d_125_297)">
<path fill-rule="evenodd" clip-rule="evenodd" d="M296.535 25.1308C427.765 17.9105 558.554 87.3976 636.199 191.779C708.642 289.169 680.704 416.807 677.496 537.276C674.12 664.034 711.543 811.776 617.382 898.302C522.552 985.443 373.999 943.803 244.302 935.346C116.256 926.996 -23.3023 937.903 -115.942 850.482C-213.424 758.492 -258.677 615.214 -232.894 485.033C-209.273 365.769 -84.9141 306.785 7.6675 226.361C99.5927 146.508 173.924 31.877 296.535 25.1308Z" fill="url(#paint0_linear_125_297)"/>
</g>
<path d="M320.336 263.051C321.562 257.058 327.803 253.534 333.566 255.589C371.785 269.217 503.598 314.231 617.265 329.219C622.449 329.903 626.061 334.7 625.257 339.868L559.13 764.129C558.224 769.946 552.794 773.94 546.971 773.067C499.338 765.936 303.324 735.866 235.743 714.063C231.629 712.736 229.183 708.521 230.05 704.288L320.336 263.051Z" fill="#219BE6"/>
<path d="M322.754 274.541C323.935 268.774 329.941 265.381 335.485 267.36C372.264 280.474 499.114 323.794 608.501 338.218C613.489 338.876 616.966 343.492 616.191 348.464L552.556 756.748C551.682 762.345 546.457 766.189 540.855 765.35C495.016 758.488 306.383 729.55 241.347 708.566C237.388 707.289 235.035 703.233 235.867 699.159L322.754 274.541Z" fill="white"/>
<path opacity="0.78" d="M358.583 308.214C355.19 307.375 351.804 309.61 351.243 313.059L337.021 400.468C336.547 403.374 338.391 406.154 341.254 406.842C357.191 410.674 406.889 422.419 435.405 426.894C438.63 427.399 441.7 425.351 442.479 422.181C446.437 406.061 457.574 359.059 458.037 338.527C458.112 335.21 455.862 332.295 452.641 331.497L358.583 308.214Z" fill="#1A7CB8"/>
<path d="M399.245 374.516C409.748 374.516 418.262 366.001 418.262 355.499C418.262 344.996 409.748 336.482 399.245 336.482C388.743 336.482 380.228 344.996 380.228 355.499C380.228 366.001 388.743 374.516 399.245 374.516Z" fill="url(#paint1_linear_125_297)"/>
<path d="M359.467 404.175L418.751 416.669C422.386 417.435 425.409 413.881 424.096 410.405C420.721 401.464 412.626 387.668 394.27 384.345C376.578 381.141 363.95 389.4 357.131 395.796C354.235 398.51 355.584 403.355 359.467 404.175Z" fill="url(#paint2_linear_125_297)"/>
<g opacity="0.6">
<path d="M586.722 370.557C588.578 370.949 590.333 369.955 590.624 368.348C590.914 366.741 589.639 365.078 587.789 364.654L484.271 340.902C482.421 340.479 481.111 341.67 481.358 343.551L481.558 345.067C481.806 346.947 483.527 348.808 485.385 349.2L586.722 370.557Z" fill="#1A7CB8"/>
</g>
<g opacity="0.6">
<path d="M480.872 357.039C479.022 356.615 477.712 357.807 477.959 359.687L478.159 361.204C478.407 363.084 480.128 364.945 481.986 365.336L583.323 386.694C585.179 387.085 586.935 386.091 587.225 384.484C587.515 382.877 586.24 381.214 584.39 380.791L480.872 357.039Z" fill="#1A7CB8"/>
</g>
<g opacity="0.6">
<path d="M477.421 373.412C475.571 372.988 474.261 374.18 474.509 376.06L474.709 377.577C474.956 379.457 476.677 381.318 478.536 381.709L579.872 403.067C581.729 403.458 583.484 402.464 583.774 400.857C584.065 399.25 582.789 397.588 580.939 397.164L477.421 373.412Z" fill="#1A7CB8"/>
</g>
<g opacity="0.6">
<path d="M573.324 484.147C575.18 484.538 576.888 483.534 577.121 481.914C577.353 480.294 576.023 478.638 574.171 478.231L331.146 425.007C329.291 424.601 328.472 425.657 329.321 427.354L330.784 430.271C331.634 431.967 333.85 433.675 335.706 434.066L573.324 484.147Z" fill="#145D8A"/>
</g>
<g opacity="0.6">
<path d="M327.745 441.146C325.89 440.739 325.071 441.796 325.92 443.493L327.383 446.41C328.233 448.105 330.449 449.813 332.305 450.205L569.922 500.286C571.779 500.677 573.487 499.672 573.719 498.053C573.95 496.433 572.622 494.776 570.77 494.37L327.745 441.146Z" fill="#145D8A"/>
</g>
<path opacity="0.6" d="M320.966 467.858C326.914 468.643 337.918 470.745 343.969 471.932C346.534 472.436 348.412 474.641 348.487 477.252C348.633 482.325 348.474 491.046 346.4 499.883C345.778 502.529 343.152 504.194 340.499 503.605L318.286 498.672C315.554 498.065 313.721 495.493 314.041 492.713L316.498 471.356C316.75 469.146 318.761 467.567 320.966 467.858Z" fill="white"/>
<g opacity="0.6">
<path d="M360.327 485.137C358.488 484.668 356.894 485.834 356.782 487.729L356.565 491.433C356.453 493.328 357.881 495.198 359.738 495.589L413.811 506.987C415.668 507.378 417.488 506.176 417.856 504.315L418.036 503.398C418.404 501.538 417.202 499.632 415.362 499.163L360.327 485.137Z" fill="white"/>
</g>
<path opacity="0.6" d="M442.264 493.421C448.212 494.206 459.215 496.308 465.267 497.495C467.831 497.999 469.709 500.204 469.784 502.815C469.931 507.888 469.772 516.609 467.698 525.446C467.076 528.093 464.452 529.758 461.797 529.168L439.583 524.235C436.851 523.629 435.02 521.056 435.339 518.276L437.796 496.919C438.047 494.712 440.059 493.131 442.264 493.421Z" fill="white"/>
<g opacity="0.6">
<path d="M481.625 510.7C479.786 510.231 478.191 511.397 478.08 513.292L477.862 516.996C477.75 518.892 479.179 520.761 481.035 521.153L535.109 532.55C536.966 532.941 538.785 531.739 539.153 529.878L539.334 528.962C539.702 527.101 538.499 525.195 536.66 524.726L481.625 510.7Z" fill="#145D8A"/>
</g>
<path d="M334.867 557.582C334.848 557.577 334.831 557.573 334.811 557.569L314.308 553.043C311.378 552.395 309.382 549.865 309.661 547.157L311.488 529.538C311.595 528.503 312.12 527.57 312.966 526.907C313.912 526.167 315.177 525.842 316.435 526.019C318.191 526.266 320.673 526.572 323.3 526.896C328.831 527.578 335.715 528.428 339.531 529.183C342.296 529.751 344.292 531.879 344.436 534.419C344.673 538.601 342.999 546.073 341.114 554.008C340.501 556.588 337.707 558.18 334.867 557.582ZM316.212 527.615C315.384 527.499 314.564 527.703 313.959 528.176C313.46 528.566 313.153 529.108 313.09 529.704L311.264 547.322C311.068 549.216 312.525 550.997 314.654 551.468L335.158 555.994C335.171 555.996 335.186 556.001 335.199 556.003C337.188 556.422 339.133 555.368 339.544 553.636C341.401 545.821 343.048 538.477 342.825 534.51C342.724 532.733 341.222 531.192 339.217 530.764C335.459 530.022 328.607 529.177 323.102 528.497C320.469 528.172 317.982 527.864 316.212 527.615Z" fill="white"/>
<path opacity="0.6" d="M318.047 529.861C322.425 530.476 332.006 531.5 336.468 532.382C338.359 532.756 339.772 534.243 339.869 535.97C340.058 539.326 338.61 545.632 337.232 551.44C336.818 553.18 334.917 554.237 332.959 553.806L316.573 550.188C314.557 549.743 313.172 548.013 313.361 546.18L314.822 532.1C314.975 530.646 316.425 529.633 318.047 529.861Z" fill="white"/>
<g opacity="0.6">
<path d="M355.323 549.938C355.444 552.32 357.163 554.316 359.499 554.787L549.933 593.23C552.087 593.664 554.182 592.253 554.588 590.093C554.984 587.994 553.633 585.961 551.544 585.511L361.629 544.58C358.277 543.857 355.151 546.514 355.323 549.938Z" fill="white"/>
</g>
<path d="M318.352 532.748C320.067 532.173 321.917 533.122 322.453 534.847L324.974 542.966C325.225 543.779 326.297 543.956 326.798 543.269L341.564 523.011C342.3 522 343.883 522.729 343.608 523.947C342.063 530.771 337.505 543.399 324.272 551.984C324.272 551.984 318.74 548.372 316.132 536.691C315.758 535.004 316.713 533.296 318.352 532.748Z" fill="url(#paint3_linear_125_297)"/>
<path d="M325.587 601.615C325.568 601.611 325.55 601.607 325.531 601.602L305.028 597.076C302.098 596.429 300.101 593.899 300.381 591.191L302.207 573.572C302.315 572.537 302.84 571.603 303.685 570.941C304.632 570.201 305.897 569.876 307.155 570.052C308.91 570.3 311.393 570.605 314.02 570.93C319.55 571.612 326.434 572.462 330.251 573.217C330.279 573.223 330.307 573.228 330.335 573.234C333.037 573.804 335.014 575.938 335.158 578.453C335.394 582.635 333.721 590.106 331.836 598.042C331.221 600.619 328.427 602.213 325.587 601.615ZM306.931 571.649C306.103 571.532 305.283 571.737 304.679 572.21C304.18 572.599 303.872 573.142 303.81 573.737L301.983 591.356C301.788 593.249 303.244 595.03 305.374 595.502L325.877 600.028C325.89 600.03 325.905 600.034 325.918 600.036C327.908 600.456 329.853 599.402 330.264 597.67C332.12 589.852 333.768 582.51 333.544 578.543C333.443 576.766 331.924 575.183 329.937 574.798C326.178 574.056 319.327 573.21 313.822 572.531C311.189 572.204 308.702 571.898 306.931 571.649Z" fill="white"/>
<path opacity="0.6" d="M308.768 573.895C313.146 574.51 322.728 575.534 327.19 576.416C329.08 576.79 330.494 578.277 330.591 580.004C330.78 583.36 329.332 589.665 327.953 595.474C327.54 597.214 325.638 598.27 323.681 597.84L307.295 594.222C305.279 593.776 303.894 592.047 304.083 590.214L305.544 576.134C305.694 574.678 307.144 573.666 308.768 573.895Z" fill="white"/>
<g opacity="0.6">
<path d="M346.043 593.972C346.164 596.353 347.882 598.35 350.219 598.821L540.653 637.264C542.806 637.698 544.901 636.287 545.308 634.127C545.704 632.027 544.353 629.995 542.264 629.545L352.348 588.613C348.997 587.89 345.871 590.547 346.043 593.972Z" fill="white"/>
</g>
<path d="M309.072 576.781C310.786 576.207 312.636 577.156 313.172 578.881L315.693 587C315.945 587.813 317.016 587.989 317.518 587.303L332.284 567.045C333.019 566.034 334.603 566.763 334.327 567.981C332.783 574.805 328.224 587.432 314.992 596.018C314.992 596.018 309.459 592.406 306.852 580.725C306.477 579.036 307.433 577.33 309.072 576.781Z" fill="url(#paint4_linear_125_297)"/>
<path d="M316.306 645.647C316.287 645.643 316.27 645.638 316.25 645.634L295.747 641.108C292.817 640.462 290.821 637.933 291.1 635.224L292.927 617.606C293.034 616.571 293.559 615.637 294.405 614.975C295.351 614.235 296.616 613.91 297.875 614.086C299.63 614.334 302.113 614.639 304.739 614.964C310.27 615.646 317.154 616.496 320.97 617.251C320.998 617.257 321.026 617.261 321.054 617.268C323.756 617.838 325.733 619.972 325.877 622.487C326.114 626.669 324.44 634.14 322.556 642.076C321.94 644.653 319.146 646.247 316.306 645.647ZM297.651 615.682C296.823 615.566 296.003 615.771 295.398 616.244C294.899 616.633 294.592 617.175 294.529 617.771L292.703 635.39C292.507 637.283 293.964 639.064 296.093 639.533L316.597 644.061C316.61 644.064 316.625 644.068 316.638 644.07C318.628 644.49 320.572 643.433 320.983 641.704C322.84 633.888 324.488 626.544 324.264 622.577C324.163 620.8 322.644 619.213 320.656 618.832C316.898 618.09 310.046 617.244 304.541 616.564C301.908 616.237 299.421 615.93 297.651 615.682Z" fill="white"/>
<path opacity="0.6" d="M299.488 617.928C303.866 618.543 313.447 619.567 317.909 620.45C319.8 620.824 321.213 622.31 321.31 624.038C321.5 627.394 320.052 633.699 318.673 639.507C318.26 641.248 316.358 642.304 314.4 641.874L298.014 638.255C295.999 637.81 294.613 636.08 294.803 634.248L296.263 620.168C296.414 618.711 297.864 617.7 299.488 617.928Z" fill="white"/>
<g opacity="0.6">
<path d="M336.763 638.006C336.883 640.387 338.602 642.384 340.938 642.855L531.372 681.297C533.526 681.732 535.621 680.321 536.028 678.161C536.423 676.061 535.072 674.028 532.984 673.579L343.068 632.647C339.716 631.924 336.593 634.581 336.763 638.006Z" fill="white"/>
</g>
<path d="M299.791 620.815C301.506 620.241 303.356 621.19 303.892 622.915L306.413 631.034C306.665 631.847 307.736 632.023 308.237 631.337L323.003 611.079C323.739 610.068 325.322 610.797 325.047 612.014C323.502 618.838 318.944 631.466 305.712 640.052C305.712 640.052 300.179 636.44 297.571 624.758C297.197 623.07 298.152 621.364 299.791 620.815Z" fill="url(#paint5_linear_125_297)"/>
<path d="M307.026 689.681C307.007 689.676 306.989 689.672 306.97 689.67L286.467 685.144C283.537 684.498 281.54 681.968 281.82 679.26L283.646 661.641C283.754 660.607 284.279 659.673 285.124 659.01C286.071 658.27 287.336 657.946 288.594 658.122C290.35 658.369 292.832 658.675 295.459 659C300.99 659.682 307.874 660.531 311.69 661.286C311.718 661.293 311.746 661.297 311.774 661.304C314.476 661.874 316.453 664.008 316.597 666.523C316.833 670.705 315.16 678.176 313.275 686.112C312.662 688.687 309.866 690.281 307.026 689.681ZM288.37 659.716C287.542 659.6 286.723 659.804 286.118 660.278C285.619 660.667 285.311 661.209 285.249 661.805L283.423 679.424C283.227 681.317 284.683 683.098 286.813 683.567L307.316 688.095C307.329 688.097 307.344 688.102 307.357 688.104C309.347 688.523 311.292 687.469 311.705 685.737C313.561 677.922 315.209 670.578 314.986 666.611C314.884 664.834 313.368 663.24 311.378 662.865C307.62 662.123 300.768 661.278 295.263 660.598C292.628 660.271 290.141 659.963 288.37 659.716Z" fill="white"/>
<path opacity="0.6" d="M290.208 661.962C294.585 662.577 304.167 663.601 308.629 664.483C310.52 664.858 311.933 666.344 312.03 668.071C312.219 671.427 310.771 677.733 309.392 683.541C308.979 685.281 307.078 686.338 305.12 685.907L288.734 682.289C286.718 681.844 285.333 680.114 285.522 678.281L286.983 664.201C287.133 662.745 288.583 661.734 290.208 661.962Z" fill="white"/>
<g opacity="0.6">
<path d="M327.482 682.039C327.603 684.421 329.321 686.417 331.658 686.888L522.092 725.331C524.245 725.766 526.34 724.354 526.747 722.194C527.141 720.095 525.792 718.062 523.703 717.612L333.787 676.681C330.436 675.958 327.312 678.613 327.482 682.039Z" fill="white"/>
</g>
<path d="M290.511 664.849C292.226 664.275 294.076 665.223 294.611 666.949L297.132 675.067C297.384 675.88 298.456 676.057 298.957 675.371L313.723 655.112C314.459 654.101 316.042 654.831 315.767 656.048C314.222 662.872 309.663 675.5 296.431 684.085C296.431 684.085 290.898 680.473 288.291 668.792C287.917 667.103 288.872 665.397 290.511 664.849Z" fill="url(#paint6_linear_125_297)"/>
<path d="M33.8444 320.278C32.5924 314.289 36.9207 308.58 43.0259 308.178C83.5144 305.519 222.368 294.524 332.649 263.17C337.679 261.739 342.898 264.71 344.21 269.772L451.888 685.434C453.364 691.133 449.965 696.954 444.275 698.464C397.724 710.823 205.873 761.011 135.189 767.82C130.887 768.235 126.969 765.338 126.085 761.106L33.8444 320.278Z" fill="#219BE6"/>
<path d="M40.6251 329.867C39.4183 324.103 43.5874 318.607 49.4624 318.222C88.4257 315.662 222.052 305.082 328.179 274.909C333.019 273.532 338.043 276.391 339.303 281.261L442.926 681.271C444.346 686.757 441.076 692.357 435.599 693.811C390.802 705.703 206.174 754.005 138.152 760.555C134.013 760.953 130.241 758.165 129.39 754.095L40.6251 329.867Z" fill="white"/>
<path opacity="0.78" d="M82.0602 353.913L103.695 439.788C104.416 442.645 107.21 444.463 110.112 443.96C126.26 441.152 176.538 432.21 204.489 425.001C207.652 424.185 209.654 421.086 209.11 417.867C206.346 401.499 197.915 353.939 190.192 334.909C188.945 331.835 185.722 330.052 182.45 330.598L86.8747 346.554C83.4262 347.13 81.2061 350.525 82.0602 353.913Z" fill="#145D8A"/>
<path d="M161.938 375.11C162.652 364.631 154.736 355.558 144.258 354.844C133.779 354.13 124.706 362.045 123.991 372.524C123.277 383.002 131.193 392.076 141.671 392.79C152.15 393.504 161.224 385.589 161.938 375.11Z" fill="#E4F3FC"/>
<path d="M125.769 434.283L185.143 422.224C188.783 421.484 190.147 417.022 187.566 414.352C180.92 407.485 168.013 398.035 149.846 402.271C132.335 406.352 124.024 418.945 120.301 427.52C118.717 431.16 121.88 435.073 125.769 434.283Z" fill="#E4F3FC"/>
<g opacity="0.6">
<path d="M321.02 313.235C322.879 312.857 324.096 311.248 323.726 309.658C323.354 308.068 321.523 307.048 319.658 307.393L215.215 326.674C213.35 327.018 212.619 328.632 213.593 330.26L214.379 331.572C215.353 333.201 217.67 334.225 219.531 333.846L321.02 313.235Z" fill="white"/>
</g>
<g opacity="0.6">
<path d="M218.496 342.839C216.631 343.183 215.9 344.796 216.874 346.425L217.659 347.737C218.634 349.365 220.951 350.389 222.811 350.011L324.303 329.398C326.161 329.019 327.379 327.41 327.009 325.82C326.637 324.23 324.806 323.211 322.941 323.555L218.496 342.839Z" fill="white"/>
</g>
<g opacity="0.6">
<path d="M221.826 359.235C219.961 359.579 219.23 361.193 220.204 362.821L220.989 364.134C221.964 365.762 224.281 366.786 226.142 366.408L327.633 345.794C329.491 345.416 330.709 343.807 330.339 342.217C329.967 340.627 328.136 339.607 326.271 339.952L221.826 359.235Z" fill="white"/>
</g>
<g opacity="0.6">
<path d="M353.8 422.815C355.659 422.437 356.829 420.838 356.399 419.259C355.969 417.68 354.093 416.686 352.23 417.05L108.041 464.646C106.178 465.01 105.844 466.305 107.298 467.522L109.798 469.62C111.252 470.839 113.963 471.528 115.822 471.149L353.8 422.815Z" fill="#1A7CB8"/>
</g>
<g opacity="0.6">
<path d="M111.323 480.808C109.46 481.172 109.127 482.467 110.581 483.684L113.081 485.782C114.535 487.002 117.246 487.69 119.104 487.311L357.083 438.975C358.942 438.597 360.112 436.998 359.682 435.419C359.252 433.84 357.376 432.846 355.513 433.21L111.323 480.808Z" fill="#1A7CB8"/>
</g>
<path opacity="0.6" d="M115.703 508.015C121.473 506.376 132.41 503.938 138.433 502.626C140.987 502.071 143.583 503.349 144.691 505.715C146.84 510.313 150.153 518.382 151.758 527.318C152.238 529.994 150.489 532.563 147.819 533.077L125.472 537.366C122.725 537.894 120.021 536.261 119.212 533.582L112.991 513.004C112.345 510.872 113.565 508.624 115.703 508.015Z" fill="#1A7CB8"/>
<g opacity="0.6">
<path d="M158.689 508.254C156.816 508.553 155.815 510.257 156.465 512.04L157.734 515.525C158.384 517.308 160.436 518.457 162.297 518.081L216.452 507.081C218.311 506.703 219.505 504.876 219.105 503.022L218.907 502.11C218.507 500.255 216.646 498.984 214.772 499.283L158.689 508.254Z" fill="#1A7CB8"/>
</g>
<path opacity="0.6" d="M237.184 483.342C242.953 481.703 253.89 479.266 259.916 477.954C262.469 477.399 265.066 478.676 266.174 481.043C268.323 485.64 271.636 493.709 273.241 502.645C273.72 505.322 271.972 507.89 269.302 508.404L246.955 512.694C244.208 513.221 241.504 511.588 240.695 508.91L234.473 488.331C233.826 486.199 235.046 483.949 237.184 483.342Z" fill="white"/>
<g opacity="0.6">
<path d="M280.17 483.581C278.296 483.88 277.296 485.584 277.946 487.367L279.215 490.852C279.864 492.636 281.917 493.785 283.778 493.408L337.933 482.409C339.792 482.03 340.985 480.204 340.585 478.349L340.387 477.437C339.987 475.583 338.126 474.309 336.253 474.611L280.17 483.581Z" fill="white"/>
</g>
<path d="M164.07 584.855C164.05 584.859 164.033 584.864 164.014 584.866L143.398 588.848C140.453 589.416 137.616 587.886 136.798 585.29L131.483 568.394C131.171 567.402 131.283 566.337 131.795 565.393C132.369 564.337 133.402 563.538 134.628 563.199C136.338 562.727 138.737 562.024 141.275 561.28C146.623 559.711 153.279 557.758 157.08 556.936C159.843 556.362 162.521 557.521 163.661 559.795C165.537 563.541 166.967 571.061 168.387 579.094C168.85 581.706 166.916 584.276 164.07 584.855ZM135.056 564.754C134.249 564.976 133.578 565.49 133.21 566.163C132.907 566.718 132.84 567.34 133.019 567.91L138.334 584.806C138.905 586.621 140.95 587.678 143.091 587.264L163.706 583.283C163.719 583.28 163.734 583.276 163.747 583.274C165.741 582.87 167.107 581.129 166.797 579.376C165.399 571.464 163.997 564.07 162.217 560.518C161.419 558.926 159.429 558.111 157.42 558.513C153.675 559.322 147.051 561.267 141.729 562.826C139.184 563.573 136.779 564.279 135.056 564.754Z" fill="white"/>
<path opacity="0.6" d="M137.631 566.086C141.893 564.913 151.096 562.05 155.54 561.09C157.422 560.684 159.311 561.488 160.086 563.035C161.591 566.04 162.764 572.402 163.803 578.281C164.115 580.043 162.79 581.768 160.821 582.147L144.347 585.328C142.321 585.72 140.363 584.681 139.81 582.925L135.562 569.422C135.123 568.026 136.052 566.52 137.631 566.086Z" fill="white"/>
<g opacity="0.6">
<path d="M179.815 569.719C180.869 571.857 183.239 573.006 185.571 572.513L375.623 532.223C377.772 531.767 379.135 529.641 378.649 527.497C378.178 525.412 376.132 524.083 374.037 524.498L183.474 562.299C180.111 562.966 178.298 566.645 179.815 569.719Z" fill="white"/>
</g>
<path d="M173.027 628.955C173.008 628.96 172.991 628.964 172.971 628.966L152.354 632.948C149.409 633.516 146.571 631.987 145.754 629.39L140.438 612.492C140.126 611.5 140.238 610.435 140.752 609.491C141.327 608.435 142.359 607.637 143.586 607.297C145.296 606.826 147.694 606.122 150.233 605.378C155.581 603.81 162.237 601.856 166.038 601.035C166.066 601.028 166.094 601.022 166.12 601.017C168.826 600.469 171.489 601.643 172.617 603.896C174.492 607.641 175.923 615.162 177.343 623.194C177.805 625.806 175.874 628.377 173.027 628.955ZM144.014 608.854C143.207 609.076 142.536 609.59 142.168 610.263C141.865 610.818 141.798 611.44 141.976 612.01L147.292 628.906C147.862 630.722 149.908 631.778 152.049 631.365L172.664 627.383C172.677 627.381 172.692 627.376 172.705 627.374C174.699 626.97 176.065 625.23 175.755 623.476C174.357 615.564 172.954 608.17 171.175 604.619C170.377 603.029 168.355 602.179 166.378 602.614C162.635 603.422 156.009 605.367 150.687 606.927C148.142 607.673 145.735 608.379 144.014 608.854Z" fill="white"/>
<path opacity="0.6" d="M146.589 610.186C150.85 609.014 160.053 606.15 164.498 605.191C166.38 604.784 168.269 605.589 169.043 607.135C170.549 610.141 171.722 616.502 172.761 622.381C173.073 624.143 171.748 625.868 169.779 626.247L153.305 629.429C151.278 629.82 149.321 628.783 148.768 627.026L144.519 613.523C144.078 612.126 145.01 610.62 146.589 610.186Z" fill="white"/>
<g opacity="0.6">
<path d="M188.772 613.819C189.826 615.958 192.197 617.106 194.529 616.614L384.58 576.323C386.729 575.867 388.093 573.742 387.607 571.597C387.136 569.512 385.09 568.183 382.995 568.598L192.432 606.4C189.069 607.067 187.256 610.745 188.772 613.819Z" fill="white"/>
</g>
<path d="M181.985 673.054C181.966 673.058 181.949 673.062 181.929 673.064L161.314 677.046C158.369 677.617 155.531 676.087 154.714 673.488L149.398 656.592C149.086 655.601 149.198 654.534 149.712 653.589C150.287 652.533 151.319 651.735 152.546 651.397C154.256 650.926 156.654 650.223 159.193 649.478C164.541 647.91 171.197 645.957 174.998 645.135C175.026 645.129 175.054 645.122 175.08 645.118C177.786 644.569 180.449 645.744 181.576 647.996C183.452 651.741 184.883 659.262 186.303 667.295C186.763 669.906 184.829 672.477 181.985 673.054ZM152.971 652.953C152.165 653.174 151.494 653.688 151.126 654.362C150.822 654.917 150.756 655.538 150.934 656.108L156.25 673.004C156.82 674.82 158.866 675.876 161.006 675.463L181.624 671.481C181.637 671.479 181.652 671.475 181.665 671.473C183.659 671.068 185.025 669.328 184.715 667.575C183.317 659.662 181.914 652.268 180.135 648.717C179.337 647.127 177.313 646.271 175.338 646.712C171.595 647.521 164.969 649.465 159.647 651.025C157.098 651.774 154.692 652.479 152.971 652.953Z" fill="white"/>
<path opacity="0.6" d="M155.546 654.286C159.808 653.114 169.011 650.251 173.456 649.291C175.338 648.885 177.227 649.689 178.001 651.236C179.507 654.241 180.679 660.602 181.718 666.482C182.03 668.244 180.705 669.969 178.737 670.347L162.263 673.529C160.236 673.921 158.279 672.882 157.726 671.126L153.477 657.623C153.036 656.225 153.965 654.721 155.546 654.286Z" fill="white"/>
<g opacity="0.6">
<path d="M197.73 657.92C198.784 660.058 201.155 661.209 203.487 660.714L393.538 620.424C395.687 619.968 397.051 617.842 396.565 615.697C396.094 613.613 394.048 612.283 391.953 612.699L201.389 650.5C198.027 651.167 196.211 654.846 197.73 657.92Z" fill="white"/>
</g>
<path d="M190.943 717.154C190.924 717.158 190.906 717.163 190.887 717.165L170.272 721.147C167.327 721.717 164.489 720.187 163.672 717.589L158.356 700.691C158.044 699.699 158.156 698.632 158.67 697.688C159.244 696.631 160.277 695.833 161.503 695.495C163.214 695.024 165.612 694.321 168.151 693.577C173.499 692.008 180.155 690.055 183.956 689.233C183.984 689.227 184.012 689.22 184.038 689.216C186.744 688.667 189.407 689.842 190.534 692.094C192.41 695.84 193.841 703.36 195.261 711.393C195.721 714.007 193.787 716.578 190.943 717.154ZM161.927 697.053C161.12 697.275 160.449 697.789 160.081 698.462C159.778 699.017 159.711 699.639 159.89 700.209L165.206 717.105C165.776 718.92 167.821 719.977 169.962 719.564L190.579 715.582C190.592 715.579 190.607 715.575 190.62 715.573C192.615 715.169 193.981 713.428 193.671 711.675C192.272 703.763 190.87 696.369 189.091 692.817C188.293 691.225 186.268 690.365 184.294 690.812C180.55 691.621 173.925 693.566 168.602 695.125C166.055 695.874 163.65 696.58 161.927 697.053Z" fill="white"/>
<path opacity="0.6" d="M164.504 698.387C168.766 697.214 177.969 694.351 182.413 693.392C184.296 692.985 186.184 693.79 186.959 695.336C188.465 698.342 189.637 704.703 190.676 710.582C190.988 712.344 189.663 714.069 187.695 714.448L171.22 717.63C169.194 718.021 167.236 716.982 166.683 715.227L162.435 701.723C161.994 700.325 162.923 698.821 164.504 698.387Z" fill="white"/>
<g opacity="0.6">
<path d="M206.686 702.02C207.74 704.159 210.111 705.307 212.442 704.815L402.494 664.524C404.643 664.068 406.007 661.943 405.52 659.798C405.049 657.713 403.004 656.384 400.908 656.799L210.345 694.601C206.985 695.267 205.169 698.946 206.686 702.02Z" fill="white"/>
</g>
<path d="M165.928 700.917C167.273 699.71 169.349 699.845 170.526 701.218L176.063 707.669C176.618 708.315 177.67 708.052 177.857 707.224L183.371 682.769C183.646 681.549 185.386 681.588 185.619 682.818C186.907 689.694 187.735 703.094 178.999 716.225C178.999 716.225 172.487 715.104 165.457 705.417C164.442 704.016 164.642 702.07 165.928 700.917Z" fill="url(#paint7_linear_125_297)"/>
<path d="M157.106 679.901C158.993 699.703 163.424 725.886 168.749 748.446H172.092C165.206 721.22 158.87 683.935 160.735 640.955C162.618 597.612 173.232 544.986 153.438 519.849C136.964 498.926 67.0574 495.798 44.0714 495.338C41.1995 495.28 39.5538 498.588 41.3415 500.838C50.1551 511.928 68.6084 537.607 70.2154 560.034C72.3344 589.592 95.3075 612.791 118.132 622.448C140.961 632.105 153.253 639.471 157.106 679.901Z" fill="#9061BD"/>
<path opacity="0.5" d="M72.8141 513.608C86.9542 517.196 100.328 523.648 112.029 532.483C117.891 536.882 123.203 542.054 127.785 547.826C132.317 553.63 136.123 560.06 138.765 566.965L139.743 569.558C140.064 570.425 140.303 571.317 140.585 572.197C140.845 573.079 141.14 573.97 141.372 574.845L142.071 577.472C143.011 580.972 143.932 584.479 144.818 587.992C146.602 595.018 148.273 602.074 149.833 609.151C152.963 623.308 155.654 637.56 157.47 651.972C157.513 652.318 157.267 652.632 156.923 652.677C156.59 652.72 156.284 652.492 156.224 652.165L156.22 652.146C154.929 645.053 153.501 637.958 151.939 630.907C150.409 623.846 148.794 616.803 147.103 609.779L144.532 599.253L141.843 588.755C140.948 585.255 140.019 581.766 139.072 578.279L138.369 575.663C138.134 574.789 137.855 573.963 137.601 573.111C137.334 572.268 137.11 571.408 136.807 570.577L135.882 568.086C133.399 561.443 129.74 555.291 125.474 549.622C123.278 546.834 120.982 544.108 118.433 541.619L117.495 540.669L116.521 539.754C115.869 539.148 115.232 538.524 114.565 537.93C113.219 536.762 111.885 535.574 110.474 534.477C104.913 529.986 98.8054 526.176 92.4571 522.833C86.1087 519.498 79.4291 516.68 72.5753 514.596L72.543 514.585C72.2763 514.503 72.1235 514.221 72.2053 513.952C72.2827 513.692 72.5538 513.542 72.8141 513.608Z" fill="#E4F3FC"/>
<path d="M157.764 706.723C169.721 724.275 168.185 734.097 168.553 742.416C168.617 743.894 168.699 745.981 168.871 748.448H172.137C171.47 745.062 170.997 741.648 170.829 738.299C169.667 715.323 164.483 676.111 144.67 652.656C124.857 629.199 103.162 627.058 75.8237 648.383C53.0421 666.153 38.831 675.121 30.4971 676.788C28.434 677.201 27.3799 679.531 28.3846 681.381C33.7304 691.225 48.8428 713.837 74.2167 712.245C106.582 710.212 145.81 689.171 157.764 706.723Z" fill="#9061BD"/>
<path opacity="0.5" d="M85.0826 676.633C86.8725 674.93 88.7698 673.394 90.7275 671.911C92.6851 670.434 94.7008 669.027 96.8004 667.742C100.985 665.159 105.451 662.954 110.205 661.435C112.582 660.684 115.032 660.105 117.538 659.787C120.042 659.484 122.605 659.443 125.143 659.757C125.775 659.86 126.414 659.92 127.04 660.06C127.662 660.207 128.305 660.327 128.908 660.499L132.474 661.605L135.966 662.962L139.35 664.589C143.786 666.927 147.798 670.085 151.136 673.804C154.501 677.515 157.134 681.79 159.3 686.219L160.114 687.882C160.393 688.433 160.595 689.016 160.839 689.582C161.299 690.724 161.794 691.851 162.224 693.002L163.424 696.485C163.85 697.638 164.121 698.836 164.465 700.011C165.823 704.72 166.757 709.519 167.563 714.325C167.608 714.594 167.428 714.848 167.159 714.893C166.903 714.936 166.66 714.773 166.6 714.525L166.595 714.51C165.455 709.801 164.358 705.086 162.792 700.523C162.08 698.219 161.178 695.988 160.342 693.738C159.89 692.626 159.374 691.544 158.896 690.447C158.642 689.904 158.429 689.343 158.143 688.818L157.308 687.233C155.101 683.001 152.421 679.034 149.22 675.566C146.016 672.099 142.215 669.235 138.053 667.045L134.86 665.533L131.554 664.268L128.157 663.233C127.593 663.074 127.04 662.967 126.481 662.831C125.924 662.7 125.35 662.646 124.784 662.547C122.503 662.248 120.171 662.265 117.855 662.53C115.536 662.777 113.227 663.266 110.96 663.928C106.419 665.251 102.039 667.224 97.8309 669.521C95.7356 670.687 93.6596 671.905 91.6439 673.224C89.6346 674.545 87.6491 675.939 85.7581 677.404L85.7452 677.412C85.5215 677.584 85.2009 677.546 85.0267 677.322C84.8697 677.109 84.8955 676.812 85.0826 676.633Z" fill="#E4F3FC"/>
<path d="M158.44 362.879C158.44 344.893 173.021 330.314 191.005 330.314H467.947C483.225 330.314 495.825 342.288 496.602 357.547L517.045 759.06C517.654 771.002 508.253 781.074 496.299 781.291L178.887 787.061C167.656 787.265 158.44 778.215 158.44 766.981V362.879Z" fill="#145D8A"/>
<path d="M181.129 336.492C181.095 330.738 186.157 326.285 191.857 327.057C229.676 332.186 359.725 348.047 467.248 339.795C472.151 339.418 476.408 343.133 476.668 348.045L498.103 751.348C498.398 756.879 494.175 761.607 488.647 761.934C443.423 764.61 257.184 774.956 190.756 767.999C186.714 767.575 183.644 764.172 183.62 760.106L181.129 336.492Z" fill="#219BE6"/>
<path d="M185.582 346.599C185.55 341.062 190.42 336.774 195.908 337.519C232.303 342.453 357.455 357.719 460.93 349.776C465.65 349.415 469.744 352.99 469.995 357.716L490.624 745.834C490.905 751.157 486.842 755.706 481.522 756.023C438.002 758.598 258.776 768.554 194.848 761.859C190.956 761.452 188.004 758.176 187.981 754.263L185.582 346.599Z" fill="white"/>
<path opacity="0.78" d="M219.275 376.523L223.141 459.73C223.27 462.497 225.505 464.698 228.274 464.777C243.683 465.212 291.703 466.382 318.817 464.969C321.885 464.81 324.311 462.327 324.412 459.257C324.929 443.652 326.06 398.233 322.504 379.248C321.93 376.181 319.295 373.935 316.175 373.825L225.09 370.639C221.805 370.527 219.122 373.24 219.275 376.523Z" fill="#145D8A"/>
<path d="M271.688 424.16C281.567 424.16 289.575 416.151 289.575 406.272C289.575 396.393 281.567 388.385 271.688 388.385C261.809 388.385 253.8 396.393 253.8 406.272C253.8 416.151 261.809 424.16 271.688 424.16Z" fill="#E4F3FC"/>
<path d="M244.518 458.788H301.504C304.997 458.788 307.091 454.931 305.21 451.986C300.37 444.411 290.242 433.285 272.703 433.786C255.799 434.27 245.78 444.321 240.742 451.53C238.604 454.591 240.785 458.788 244.518 458.788Z" fill="#E4F3FC"/>
<g opacity="0.6">
<path d="M447.158 383.766C448.943 383.766 450.365 382.51 450.322 380.974C450.277 379.438 448.78 378.155 446.996 378.125L347.114 376.346C345.331 376.314 344.354 377.665 344.948 379.349L345.426 380.707C346.019 382.391 347.964 383.768 349.748 383.768H447.158V383.766Z" fill="#1A7CB8"/>
</g>
<g opacity="0.6">
<path d="M347.112 391.857C345.329 391.824 344.352 393.175 344.946 394.86L345.423 396.217C346.017 397.902 347.962 399.278 349.745 399.278H447.156C448.941 399.278 450.363 398.022 450.32 396.486C450.275 394.95 448.778 393.668 446.994 393.638L347.112 391.857Z" fill="#1A7CB8"/>
</g>
<g opacity="0.6">
<path d="M347.112 407.595C345.329 407.563 344.352 408.914 344.946 410.598L345.423 411.956C346.017 413.64 347.962 415.017 349.745 415.017H447.156C448.941 415.017 450.363 413.761 450.32 412.225C450.275 410.689 448.778 409.406 446.994 409.376L347.112 407.595Z" fill="#1A7CB8"/>
</g>
<g opacity="0.6">
<path d="M456.858 490.91C458.643 490.91 460.02 489.654 459.919 488.118C459.818 486.582 458.275 485.315 456.49 485.302L222.493 483.459C220.708 483.444 220.157 484.575 221.269 485.971L223.181 488.372C224.294 489.768 226.662 490.91 228.448 490.91H456.858Z" fill="#1A7CB8"/>
</g>
<g opacity="0.6">
<path d="M222.493 498.969C220.708 498.954 220.157 500.086 221.269 501.482L223.181 503.882C224.294 505.279 226.662 506.421 228.448 506.421H456.86C458.645 506.421 460.022 505.165 459.921 503.629C459.82 502.093 458.277 500.826 456.492 500.813L222.493 498.969Z" fill="#1A7CB8"/>
</g>
<path d="M221.437 524.868C227.062 524.438 237.599 524.237 243.399 524.156C245.856 524.121 248.011 525.786 248.588 528.174C249.706 532.814 251.251 540.873 251.057 549.409C250.999 551.965 248.904 554.006 246.348 553.978L224.946 553.748C222.315 553.72 220.129 551.709 219.884 549.086L218.001 528.953C217.806 526.873 219.35 525.029 221.437 524.868Z" fill="#145D8A"/>
<g opacity="0.6">
<path d="M261.015 533.137C259.232 533.062 257.991 534.445 258.255 536.211L258.774 539.662C259.038 541.426 260.716 542.872 262.5 542.872H314.478C316.263 542.872 317.705 541.411 317.683 539.627L317.673 538.75C317.651 536.964 316.173 535.443 314.39 535.37L261.015 533.137Z" fill="#1A7CB8"/>
</g>
<path d="M338.032 524.868C343.657 524.438 354.194 524.237 359.994 524.156C362.451 524.121 364.606 525.786 365.183 528.174C366.301 532.814 367.846 540.873 367.652 549.409C367.594 551.965 365.499 554.006 362.943 553.978L341.541 553.748C338.91 553.72 336.724 551.709 336.479 549.086L334.596 528.953C334.403 526.873 335.947 525.029 338.032 524.868Z" fill="#145D8A"/>
<g opacity="0.6">
<path d="M377.61 533.137C375.827 533.062 374.586 534.445 374.85 536.211L375.369 539.662C375.633 541.426 377.311 542.872 379.095 542.872H431.073C432.858 542.872 434.3 541.411 434.278 539.627L434.267 538.75C434.246 536.964 432.768 535.443 430.985 535.37L377.61 533.137Z" fill="#1A7CB8"/>
</g>
<path d="M251.634 604.752C251.617 604.752 251.597 604.752 251.58 604.752L231.832 604.563C229.009 604.535 226.682 602.594 226.413 600.047L224.677 583.476C224.576 582.504 224.877 581.542 225.526 580.768C226.253 579.903 227.355 579.359 228.549 579.277C230.212 579.163 232.557 578.963 235.037 578.752C240.26 578.307 246.761 577.754 250.418 577.709C253.073 577.696 255.323 579.266 255.949 581.577C256.977 585.38 256.887 592.58 256.691 600.252C256.627 602.743 254.364 604.752 251.634 604.752ZM228.652 580.791C227.867 580.845 227.153 581.194 226.688 581.744C226.305 582.2 226.127 582.76 226.185 583.317L227.921 599.888C228.108 601.667 229.794 603.024 231.845 603.046L251.593 603.235C251.606 603.235 251.619 603.235 251.632 603.235C253.546 603.235 255.13 601.886 255.173 600.213C255.366 592.658 255.457 585.58 254.482 581.972C254.045 580.357 252.363 579.232 250.436 579.225C246.832 579.27 240.361 579.821 235.164 580.264C232.677 580.475 230.328 580.675 228.652 580.791Z" fill="#1A7CB8"/>
<path opacity="0.6" d="M230.778 582.502C234.927 582.218 243.943 581.303 248.22 581.25C250.031 581.226 251.621 582.321 252.047 583.893C252.873 586.946 252.763 593.028 252.619 598.642C252.576 600.325 251.031 601.667 249.147 601.648L233.366 601.497C231.425 601.478 229.814 600.155 229.633 598.432L228.246 585.191C228.099 583.818 229.239 582.607 230.778 582.502Z" fill="#1A7CB8"/>
<g opacity="0.6">
<path d="M268.979 593.748C269.551 595.917 271.52 597.42 273.764 597.401L456.49 595.844C458.557 595.826 460.212 594.12 460.166 592.055C460.123 590.046 458.486 588.437 456.477 588.428L273.744 587.596C270.517 587.581 268.157 590.629 268.979 593.748Z" fill="#1A7CB8"/>
</g>
<path d="M231.619 585.1C233.086 584.24 234.973 584.754 235.801 586.238L239.697 593.221C240.086 593.92 241.106 593.875 241.435 593.146L251.096 571.636C251.578 570.562 253.176 570.926 253.159 572.103C253.06 578.681 251.315 591.188 240.802 601.656C240.802 601.656 235.009 599.404 230.343 589.16C229.668 587.678 230.216 585.922 231.619 585.1Z" fill="#0F172A"/>
<path d="M251.634 647.08C251.617 647.08 251.597 647.08 251.58 647.08L231.832 646.89C229.009 646.862 226.682 644.922 226.413 642.375L224.677 625.804C224.576 624.832 224.877 623.87 225.526 623.096C226.253 622.231 227.355 621.686 228.549 621.605C230.212 621.491 232.557 621.291 235.037 621.08C240.26 620.635 246.761 620.082 250.418 620.036C250.444 620.036 250.472 620.036 250.498 620.036C253.095 620.036 255.33 621.618 255.949 623.904C256.977 627.708 256.887 634.908 256.691 642.579C256.627 645.07 254.364 647.08 251.634 647.08ZM228.652 623.119C227.867 623.173 227.153 623.521 226.688 624.072C226.305 624.528 226.127 625.088 226.185 625.645L227.921 642.216C228.108 643.995 229.794 645.352 231.845 645.374L251.593 645.563C251.606 645.563 251.619 645.563 251.632 645.563C253.546 645.563 255.13 644.214 255.173 642.541C255.366 634.985 255.457 627.908 254.482 624.3C254.045 622.685 252.339 621.523 250.436 621.553C246.832 621.598 240.363 622.149 235.164 622.592C232.677 622.803 230.328 623.003 228.652 623.119Z" fill="#1A7CB8"/>
<path opacity="0.6" d="M230.778 624.829C234.927 624.545 243.943 623.631 248.22 623.577C250.031 623.556 251.621 624.649 252.047 626.221C252.873 629.274 252.763 635.355 252.619 640.97C252.576 642.652 251.031 643.995 249.147 643.975L233.366 643.825C231.425 643.805 229.814 642.482 229.633 640.759L228.246 627.518C228.099 626.146 229.239 624.933 230.778 624.829Z" fill="#1A7CB8"/>
<g opacity="0.6">
<path d="M268.979 636.076C269.551 638.245 271.52 639.748 273.764 639.729L456.49 638.171C458.557 638.154 460.212 636.448 460.166 634.383C460.123 632.374 458.486 630.765 456.477 630.756L273.744 629.924C270.517 629.906 268.157 632.957 268.979 636.076Z" fill="#1A7CB8"/>
</g>
<path d="M231.619 627.426C233.086 626.565 234.973 627.08 235.801 628.564L239.697 635.547C240.086 636.246 241.106 636.201 241.435 635.472L251.096 613.961C251.578 612.888 253.176 613.251 253.159 614.428C253.06 621.007 251.315 633.514 240.802 643.982C240.802 643.982 235.009 641.73 230.343 631.485C229.668 630.005 230.216 628.25 231.619 627.426Z" fill="#0F172A"/>
<path d="M251.634 689.405C251.617 689.405 251.597 689.405 251.58 689.405L231.832 689.216C229.009 689.19 226.682 687.248 226.413 684.701L224.677 668.13C224.576 667.157 224.877 666.196 225.526 665.421C226.253 664.556 227.355 664.012 228.549 663.93C230.212 663.816 232.557 663.616 235.037 663.405C240.26 662.96 246.761 662.407 250.418 662.362C250.444 662.362 250.472 662.362 250.498 662.362C253.095 662.362 255.33 663.943 255.949 666.23C256.977 670.033 256.887 677.234 256.691 684.905C256.627 687.398 254.364 689.405 251.634 689.405ZM228.652 665.445C227.867 665.499 227.153 665.847 226.688 666.398C226.305 666.854 226.127 667.413 226.185 667.973L227.921 684.544C228.108 686.323 229.794 687.68 231.845 687.699L251.593 687.889C251.606 687.889 251.619 687.889 251.632 687.889C253.546 687.889 255.13 686.54 255.173 684.866C255.366 677.311 255.457 670.233 254.482 666.626C254.045 665.01 252.339 663.842 250.436 663.879C246.832 663.924 240.363 664.475 235.164 664.918C232.677 665.131 230.328 665.331 228.652 665.445Z" fill="#1A7CB8"/>
<path opacity="0.6" d="M230.778 667.155C234.927 666.871 243.943 665.957 248.22 665.903C250.031 665.882 251.621 666.974 252.047 668.547C252.873 671.6 252.763 677.681 252.619 683.296C252.576 684.978 251.031 686.32 249.147 686.301L233.366 686.151C231.425 686.131 229.814 684.808 229.633 683.085L228.246 669.844C228.099 668.474 229.239 667.26 230.778 667.155Z" fill="#1A7CB8"/>
<g opacity="0.6">
<path d="M268.979 678.404C269.551 680.572 271.52 682.076 273.764 682.057L456.49 680.499C458.557 680.482 460.212 678.776 460.166 676.711C460.123 674.702 458.486 673.092 456.477 673.084L273.744 672.251C270.517 672.234 268.157 675.285 268.979 678.404Z" fill="#1A7CB8"/>
</g>
<path d="M231.619 669.754C233.086 668.893 234.973 669.407 235.801 670.892L239.697 677.875C240.086 678.574 241.106 678.529 241.435 677.799L251.096 656.289C251.578 655.216 253.176 655.579 253.159 656.756C253.06 663.334 251.315 675.842 240.802 686.31C240.802 686.31 235.009 684.057 230.343 673.813C229.668 672.333 230.216 670.578 231.619 669.754Z" fill="#0F172A"/>
<path d="M251.634 731.733C251.617 731.733 251.597 731.733 251.58 731.733L231.832 731.544C229.009 731.518 226.682 729.575 226.413 727.028L224.677 710.457C224.576 709.485 224.877 708.523 225.526 707.749C226.253 706.884 227.355 706.34 228.549 706.258C230.212 706.144 232.557 705.944 235.037 705.733C240.26 705.288 246.761 704.735 250.418 704.69C250.444 704.69 250.472 704.69 250.498 704.69C253.095 704.69 255.33 706.271 255.949 708.558C256.977 712.361 256.887 719.561 256.691 727.233C256.627 729.726 254.364 731.733 251.634 731.733ZM228.652 707.773C227.867 707.826 227.153 708.175 226.688 708.726C226.305 709.182 226.127 709.741 226.185 710.3L227.921 726.871C228.108 728.65 229.794 730.008 231.845 730.027L251.593 730.216C251.606 730.216 251.619 730.216 251.632 730.216C253.546 730.216 255.13 728.868 255.173 727.194C255.366 719.639 255.457 712.561 254.482 708.954C254.045 707.338 252.339 706.166 250.436 706.207C246.832 706.252 240.363 706.802 235.164 707.246C232.677 707.458 230.328 707.659 228.652 707.773Z" fill="#1A7CB8"/>
<path opacity="0.6" d="M230.778 709.483C234.927 709.199 243.943 708.285 248.22 708.231C250.031 708.209 251.621 709.302 252.047 710.875C252.873 713.927 252.763 720.009 252.619 725.624C252.576 727.306 251.031 728.648 249.147 728.629L233.366 728.478C231.425 728.459 229.814 727.136 229.633 725.413L228.246 712.172C228.099 710.802 229.239 709.588 230.778 709.483Z" fill="#1A7CB8"/>
<g opacity="0.6">
<path d="M268.979 720.732C269.551 722.9 271.52 724.404 273.764 724.385L456.49 722.827C458.557 722.81 460.212 721.104 460.166 719.039C460.123 717.029 458.486 715.42 456.477 715.412L273.744 714.579C270.517 714.562 268.157 717.612 268.979 720.732Z" fill="#1A7CB8"/>
</g>
<path d="M231.619 712.081C233.086 711.221 234.973 711.735 235.801 713.219L239.697 720.202C240.086 720.902 241.106 720.856 241.435 720.127L251.096 698.617C251.578 697.543 253.176 697.907 253.159 699.084C253.06 705.662 251.315 718.17 240.802 728.637C240.802 728.637 235.009 726.385 230.343 716.141C229.668 714.661 230.216 712.905 231.619 712.081Z" fill="#0F172A"/>
<path d="M346.652 275.569C336.649 268.61 327.951 268.748 321.827 270.555C316.242 272.203 312.621 277.596 313.153 283.395L315.792 312.218L347.216 315.006C347.216 315.006 366.271 289.217 346.652 275.569ZM332.834 298.822C328.508 298.822 325 295.313 325 290.987C325 286.659 328.508 283.152 332.834 283.152C337.163 283.152 340.669 286.661 340.669 290.987C340.669 295.313 337.163 298.822 332.834 298.822Z" fill="url(#paint8_linear_125_297)"/>
<path d="M318.933 300.091C318.546 300.091 318.215 299.797 318.178 299.403L317.756 294.812C317.718 294.395 318.025 294.027 318.443 293.988C318.869 293.947 319.23 294.257 319.267 294.674L319.686 299.265C319.725 299.683 319.417 300.05 319 300.089C318.978 300.091 318.957 300.091 318.933 300.091ZM318.109 291.097C317.722 291.097 317.391 290.802 317.354 290.409L317.034 286.924C316.528 281.399 320.004 276.256 325.299 274.692C329.048 273.584 332.914 273.427 336.782 274.22C337.193 274.304 337.457 274.704 337.371 275.115C337.287 275.524 336.89 275.787 336.476 275.705C332.852 274.963 329.235 275.111 325.727 276.146C321.123 277.505 318.103 281.98 318.542 286.786L318.86 290.271C318.899 290.688 318.591 291.056 318.174 291.095C318.154 291.097 318.131 291.097 318.109 291.097Z" fill="white"/>
<path d="M272.907 330.843V316.352C272.907 311.351 277.053 307.343 282.052 307.515L381.962 310.938C386.396 311.091 389.986 314.588 390.253 319.018L391.088 332.941L272.907 330.843Z" fill="url(#paint9_linear_125_297)"/>
<path d="M310.163 312.975H305.866C305.447 312.975 305.109 312.635 305.109 312.218C305.109 311.798 305.449 311.461 305.866 311.461H310.163C310.582 311.461 310.92 311.8 310.92 312.218C310.92 312.635 310.58 312.975 310.163 312.975Z" fill="white"/>
<path d="M278.316 326.293C277.896 326.293 277.558 325.953 277.558 325.536V319.674C277.558 315.143 281.243 311.461 285.772 311.461H301.568C301.988 311.461 302.326 311.8 302.326 312.218C302.326 312.637 301.986 312.975 301.568 312.975H285.772C282.078 312.975 279.073 315.98 279.073 319.672V325.534C279.075 325.953 278.735 326.293 278.316 326.293Z" fill="white"/>
<path d="M417.537 425.498L394.018 406.319L370.498 425.498C372.374 407.46 373.248 387.333 372.256 365.493C371.94 358.538 371.451 351.801 370.825 345.295C370.746 344.458 371.021 343.628 371.587 343.006C372.153 342.385 372.953 342.032 373.792 342.032C387.433 342.032 401.076 342.032 414.717 342.032C416.3 342.032 417.606 343.271 417.69 344.85C418.213 354.842 418.553 365.181 418.665 375.849C418.852 393.253 418.417 409.83 417.537 425.498Z" fill="#AC88CE"/>
<path d="M232.199 334.502C232.44 329.484 236.579 325.54 241.603 325.54L416.313 325.536C422.595 325.536 427.967 330.056 429.038 336.247L429.186 337.101C430.361 343.882 425.14 350.082 418.258 350.082H239.015C234.897 350.082 231.614 346.638 231.812 342.524L232.199 334.502Z" fill="#145D8A"/>
<path d="M537.204 818.15C528.053 818.572 519.192 818.308 513.278 818.002C518.663 814.169 531.071 805.828 541.453 802.509L548.58 802.083C548.58 802.083 550.996 805.755 551.856 814.16C550.675 815.634 547.225 817.69 537.204 818.15Z" fill="url(#paint10_linear_125_297)"/>
<path d="M513.205 818.056C513.229 818.039 513.255 818.021 513.278 818.004C519.192 818.308 528.053 818.572 537.204 818.153C547.223 817.692 550.675 815.636 551.856 814.162C551.897 814.549 551.936 814.934 551.97 815.341C552.119 817.185 550.748 818.804 548.905 818.944C541.41 819.51 522.825 820.794 513.863 820.323C512.68 820.261 512.241 818.742 513.205 818.056Z" fill="url(#paint11_linear_125_297)"/>
<path d="M602.664 815.7C603.336 811.404 604.409 805.191 605.239 803.604C606.543 801.113 611.003 803.604 611.003 803.604C611.003 803.604 614.133 805.064 615.574 807.498C616.492 809.049 619.033 813.463 620.754 816.457C620.952 816.802 621.034 817.17 621.025 817.524L603.168 818.15C602.731 817.449 602.524 816.595 602.664 815.7Z" fill="url(#paint12_linear_125_297)"/>
<path d="M621.025 817.524C620.995 818.544 620.186 819.469 619.046 819.501L606.324 819.852C604.979 819.889 603.815 819.192 603.168 818.15L621.025 817.524Z" fill="url(#paint13_linear_125_297)"/>
<path d="M601.3 789.324C601.455 789.84 603.761 801.025 604.772 805.936C605.052 807.293 606.274 808.246 607.657 808.175C608.412 808.137 609.292 808.07 610.213 807.949C611.848 807.739 613.094 806.373 613.158 804.725C613.322 800.424 613.403 792.168 611.824 788.969C609.645 784.555 601.3 789.324 601.3 789.324Z" fill="url(#paint14_linear_125_297)"/>
<path d="M549.983 792.527C548.993 792.495 550.378 797.636 548.881 802.69C548.543 803.83 547.692 804.725 546.502 804.74C545.732 804.75 544.82 804.735 543.892 804.66C542.498 804.548 541.378 803.466 541.249 802.074L540.031 788.967L549.983 792.527Z" fill="url(#paint15_linear_125_297)"/>
<path d="M522.3 653.2C522.741 655.351 538.334 746.29 539.28 793.349C539.295 794.138 539.876 794.799 540.659 794.908C542.638 795.184 546.493 795.539 550.23 794.846C550.742 794.751 551.127 794.33 551.159 793.809C551.704 785.041 556.086 710.896 550.72 675.992C550.72 675.992 595.051 769.294 601.771 795.02C601.935 795.646 602.509 796.068 603.155 796.034C605.054 795.932 609.002 795.593 612.136 794.437C613.259 794.024 613.9 792.843 613.616 791.679C609.862 776.283 583.55 670.205 565.687 646.834L522.3 653.2Z" fill="url(#paint16_linear_125_297)"/>
<path d="M550.718 676.575C550.865 676.575 551.011 676.519 551.125 676.41C551.355 676.186 551.359 675.816 551.134 675.588L545.198 669.517C544.974 669.287 544.605 669.283 544.374 669.508C544.144 669.732 544.14 670.102 544.366 670.332L550.301 676.403C550.417 676.517 550.568 676.575 550.718 676.575Z" fill="url(#paint17_linear_125_297)"/>
<path d="M507.306 535.843C520.569 533.849 546.599 530.992 563.578 535.975L561.737 588.452L500.222 581.82L495.003 574.402C495.003 574.404 497.421 537.33 507.306 535.843Z" fill="#1E293B"/>
<path d="M537.944 507.748C537.944 507.748 539.173 528.622 538.94 535.114C538.94 535.114 521.853 537.911 517.785 534.987L520.999 510.244L537.944 507.748Z" fill="url(#paint18_linear_125_297)"/>
<path d="M521.332 486.845C521.332 486.845 514.453 498.922 513.366 505.532C512.28 512.143 510.383 516.304 517.927 518.472C525.473 520.638 532.364 517.506 536.587 511.259C536.587 511.259 543.185 501.643 542.402 497.33C541.619 493.014 521.332 486.845 521.332 486.845Z" fill="url(#paint19_linear_125_297)"/>
<path d="M534.472 506.212L533.5 506.107C533.5 506.107 538.39 498.321 535.025 496.499C531.66 494.677 518.026 490.334 515.55 485.061C513.164 479.98 516.412 474.099 520.468 472.791C520.724 472.709 521.001 472.855 521.1 473.105L521.356 473.746C521.53 474.185 522.152 474.189 522.331 473.75C522.5 473.335 523.088 473.305 523.281 473.707C524.043 475.286 526.278 477.96 532.831 479.913C542.131 482.686 547.991 487.202 547.438 493.776C547.403 494.193 547.823 494.469 548.199 494.292C548.946 493.942 550.088 493.862 551.45 495.282C553.818 497.754 552.14 503.321 545.927 507.38C545.633 507.574 545.59 507.998 545.863 508.219C546.827 509.005 548.197 510.775 543.968 512.483C539.642 514.23 537.245 513.731 536.357 513.397C536.118 513.307 535.976 513.066 536.019 512.814L537.004 507.043C537.056 506.744 536.843 506.464 536.542 506.432L534.472 506.212Z" fill="url(#paint20_linear_125_297)"/>
<path d="M534.102 507.402C534.102 507.402 537.077 499.535 540.463 502.194C543.847 504.855 537.604 511.061 534.653 511.048L534.102 507.402Z" fill="url(#paint21_linear_125_297)"/>
<path d="M460.42 576.895L462.051 570.483C462.857 567.312 466.013 565.333 469.221 565.987L622.849 597.33C626.347 598.044 628.595 601.469 627.86 604.963L618.493 649.36L460.42 576.895Z" fill="#9061BD"/>
<path d="M445.854 654.775L457.408 571.728C457.647 570.009 459.301 568.863 460.994 569.237L618.784 604.276C622.15 605.025 624.263 608.372 623.488 611.735L610.245 669.138L445.854 654.775Z" fill="white"/>
<path d="M450.021 651.012L454.446 576.887C454.56 574.981 456.341 573.623 458.209 574.019L617.656 607.759C619.904 608.235 621.387 610.388 621.025 612.658L612.532 666.202L450.021 651.012Z" fill="white"/>
<path d="M438.471 668.534L448.509 588.245C449.01 584.244 452.781 581.495 456.744 582.241L620.244 613.101C623.559 613.727 625.741 616.921 625.115 620.236L611.306 693.4C610.654 696.853 607.416 699.191 603.934 698.727L445.43 677.558C441.027 676.973 437.92 672.944 438.471 668.534Z" fill="#9061BD"/>
<path d="M514.276 593.101C513.633 596.506 510.35 598.748 506.945 598.105L470.49 591.225C467.085 590.582 464.843 587.299 465.486 583.893C466.129 580.488 469.412 578.246 472.818 578.89L509.272 585.769C512.68 586.413 514.919 589.695 514.276 593.101Z" fill="#9061BD"/>
<path d="M546.42 558.857L563.578 535.975C563.578 535.975 591.151 565.264 596.439 602.439L579.239 610.827C573.902 598.309 564.078 581.351 546.42 558.857Z" fill="#0F172A"/>
<path d="M571.005 661.936C573.037 658.535 577.006 652.062 578.936 650.042C578.936 650.042 577.172 648.928 573.786 649.343C570.402 649.758 567.75 648.108 567.851 646.264L584.002 641.31C584.727 639.793 587.924 631.191 579.239 610.827L596.439 602.439C598.42 616.358 597.284 631.378 590.398 646.385C590.398 646.385 585.056 662.973 578.921 666.654C562.907 676.259 570.224 663.242 571.005 661.936Z" fill="url(#paint22_linear_125_297)"/>
<path d="M160.296 446.698L156.908 450.99L156.895 451.005C156.648 451.317 156.194 451.371 155.882 451.123C155.57 450.876 155.516 450.422 155.764 450.11C155.766 450.106 155.772 450.099 155.774 450.097L159.29 445.857C159.52 445.577 159.933 445.539 160.212 445.771C160.486 445.999 160.529 446.403 160.309 446.681L160.296 446.698Z" fill="white"/>
<path d="M148.841 462.323L143.097 471.487L143.069 471.53C142.779 471.995 142.166 472.134 141.701 471.844C141.236 471.554 141.097 470.941 141.387 470.476C141.389 470.472 141.396 470.463 141.398 470.459L147.372 461.324C147.641 460.914 148.189 460.8 148.6 461.068C149.004 461.333 149.123 461.873 148.867 462.282L148.841 462.323Z" fill="white"/>
<path d="M136.424 483.678L131.816 493.449L131.788 493.507C131.502 494.114 130.779 494.372 130.173 494.088C129.566 493.802 129.308 493.079 129.592 492.472C129.594 492.468 129.598 492.457 129.6 492.453L134.434 482.652C134.707 482.099 135.376 481.871 135.929 482.144C136.476 482.413 136.704 483.071 136.446 483.62L136.424 483.678Z" fill="white"/>
<path d="M126.685 506.343L123.34 516.601L123.314 516.678C123.069 517.431 122.26 517.842 121.507 517.597C120.754 517.351 120.344 516.542 120.589 515.79C120.591 515.783 120.595 515.77 120.597 515.766L124.175 505.423C124.416 504.726 125.177 504.356 125.874 504.597C126.565 504.835 126.933 505.582 126.709 506.272L126.685 506.343Z" fill="white"/>
<path d="M119.896 530.02L117.902 540.606L117.885 540.699C117.721 541.566 116.887 542.134 116.022 541.972C115.155 541.809 114.587 540.974 114.75 540.109L114.752 540.092L116.899 529.347C117.065 528.514 117.876 527.974 118.706 528.142C119.533 528.308 120.07 529.106 119.915 529.932L119.896 530.02Z" fill="white"/>
<path d="M116.271 554.353L115.744 565.1L115.738 565.206C115.69 566.161 114.879 566.897 113.924 566.849C112.969 566.802 112.233 565.991 112.281 565.036L112.283 565.016L112.939 554.069C112.995 553.148 113.787 552.447 114.707 552.5C115.622 552.554 116.321 553.335 116.278 554.249L116.271 554.353Z" fill="white"/>
<path d="M116.02 578.931L116.973 589.644L116.983 589.756C117.074 590.782 116.316 591.687 115.29 591.78C114.264 591.87 113.358 591.113 113.266 590.087L113.264 590.068L112.41 579.124C112.332 578.13 113.075 577.261 114.068 577.184C115.056 577.106 115.921 577.84 116.007 578.823L116.02 578.931Z" fill="white"/>
<path d="M119.143 603.296L121.55 613.772L121.576 613.888C121.824 614.964 121.152 616.037 120.075 616.285C118.997 616.532 117.926 615.861 117.676 614.783L117.672 614.762L115.327 604.031C115.099 602.984 115.761 601.951 116.809 601.721C117.848 601.493 118.876 602.147 119.113 603.182L119.143 603.296Z" fill="white"/>
<path d="M125.545 626.996L129.301 637.064L129.344 637.178C129.751 638.266 129.198 639.477 128.11 639.882C127.023 640.288 125.812 639.735 125.405 638.647L125.401 638.636L121.613 628.323C121.217 627.247 121.77 626.056 122.845 625.66C123.921 625.264 125.113 625.817 125.509 626.892L125.545 626.996Z" fill="white"/>
<path d="M134.957 649.668L139.978 659.17L140.034 659.275C140.587 660.323 140.187 661.622 139.137 662.177C138.089 662.732 136.79 662.33 136.237 661.282L136.233 661.276L131.136 651.543C130.592 650.502 130.992 649.218 132.033 648.672C133.075 648.127 134.361 648.527 134.905 649.569L134.957 649.668Z" fill="white"/>
<path d="M147.191 670.952L153.367 679.748L153.436 679.847C154.131 680.837 153.892 682.205 152.903 682.9C151.911 683.595 150.545 683.356 149.848 682.366L149.843 682.36L143.564 673.346C142.878 672.361 143.121 671.008 144.104 670.322C145.087 669.635 146.442 669.878 147.129 670.862L147.191 670.952Z" fill="white"/>
<path d="M161.994 690.535L169.218 698.486L169.302 698.578C170.132 699.492 170.065 700.906 169.151 701.736C168.237 702.567 166.823 702.5 165.993 701.586L165.986 701.579L158.625 693.419C157.805 692.512 157.876 691.109 158.786 690.289C159.696 689.47 161.097 689.541 161.916 690.451L161.994 690.535Z" fill="white"/>
<path d="M179.137 708.084L187.329 715.018L187.434 715.106C188.396 715.919 188.514 717.358 187.701 718.32C186.888 719.282 185.449 719.402 184.487 718.587L184.481 718.583L176.108 711.445C175.159 710.634 175.043 709.207 175.854 708.257C176.665 707.306 178.091 707.192 179.042 708.003L179.137 708.084Z" fill="white"/>
<path d="M198.446 723.154L202.988 725.985L205.257 727.401C206.019 727.865 206.759 728.364 207.54 728.795C208.665 729.416 209.074 730.83 208.452 731.955C207.83 733.08 206.417 733.488 205.292 732.867L205.283 732.862L205.221 732.828C204.416 732.381 203.655 731.864 202.872 731.382L200.537 729.915L195.871 726.979C194.794 726.301 194.469 724.877 195.146 723.799C195.824 722.722 197.246 722.397 198.326 723.074L198.446 723.154Z" fill="white"/>
<path d="M219.778 735.055C223.02 736.537 226.316 737.911 229.654 739.168C230.863 739.624 231.474 740.973 231.021 742.182C230.564 743.391 229.22 744.004 228.011 743.548C224.571 742.259 221.17 740.859 217.825 739.331C216.644 738.791 216.123 737.397 216.663 736.216C217.201 735.035 218.597 734.517 219.778 735.055Z" fill="white"/>
<path d="M242.734 743.464L253.135 746.043L253.275 746.077C254.512 746.385 255.267 747.635 254.959 748.872C254.654 750.109 253.406 750.864 252.171 750.559L241.478 747.936C240.232 747.631 239.471 746.374 239.776 745.129C240.082 743.883 241.338 743.122 242.583 743.427L242.59 743.429L242.734 743.464Z" fill="white"/>
<path d="M266.718 748.412L277.393 749.547L277.522 749.56C278.769 749.694 279.673 750.812 279.542 752.06C279.408 753.308 278.298 754.214 277.048 754.08L266.111 752.953C264.853 752.824 263.939 751.699 264.068 750.44C264.197 749.182 265.322 748.267 266.58 748.397H266.589L266.718 748.412Z" fill="white"/>
<path d="M291.191 750.161L301.94 749.986L302.052 749.984C303.255 749.965 304.247 750.924 304.266 752.127C304.285 753.325 303.334 754.31 302.14 754.34L291.165 754.601C289.939 754.631 288.923 753.661 288.893 752.434C288.863 751.208 289.833 750.191 291.059 750.163H291.077L291.191 750.161Z" fill="white"/>
<path d="M315.734 748.967L326.413 747.583L326.51 747.57C327.65 747.422 328.695 748.227 328.844 749.369C328.99 750.505 328.194 751.544 327.063 751.701L316.201 753.196C315.037 753.355 313.966 752.542 313.804 751.38C313.645 750.216 314.458 749.145 315.62 748.984L315.637 748.982L315.734 748.967Z" fill="white"/>
<path d="M340.043 745.129L350.541 742.683L350.621 742.664C351.643 742.425 352.665 743.062 352.903 744.083C353.14 745.097 352.516 746.108 351.511 746.359L340.886 749.001C339.824 749.266 338.75 748.618 338.486 747.558C338.221 746.497 338.869 745.421 339.929 745.157C339.936 745.155 339.942 745.155 339.946 745.153L340.043 745.129Z" fill="white"/>
<path d="M363.879 738.882L374.108 735.435L374.175 735.414C375.074 735.111 376.048 735.595 376.352 736.494C376.651 737.384 376.18 738.35 375.296 738.662L364.985 742.306C364.049 742.638 363.021 742.147 362.689 741.209C362.358 740.274 362.848 739.245 363.786 738.914C363.791 738.912 363.797 738.91 363.801 738.907L363.879 738.882Z" fill="white"/>
<path d="M387.05 730.408L396.939 726.052L396.993 726.028C397.767 725.686 398.675 726.039 399.017 726.813C399.355 727.581 399.013 728.478 398.251 728.827L388.319 733.379C387.508 733.751 386.549 733.394 386.176 732.583C385.804 731.772 386.161 730.812 386.972 730.44C386.977 730.438 386.981 730.436 386.985 730.434L387.05 730.408Z" fill="white"/>
<path d="M430.905 707.684L439.983 701.777L440.011 701.76C440.454 701.472 441.048 701.596 441.336 702.04C441.62 702.476 441.502 703.059 441.076 703.352L432.084 709.517C431.589 709.857 430.912 709.73 430.569 709.235C430.23 708.741 430.357 708.063 430.851 707.723C430.858 707.719 430.862 707.715 430.868 707.712L430.905 707.684Z" fill="white"/>
<path d="M451.413 693.731L455.799 690.447L455.808 690.44C456.098 690.223 456.509 690.281 456.724 690.571C456.937 690.855 456.883 691.255 456.61 691.477L452.312 694.917C451.991 695.173 451.523 695.121 451.264 694.801C451.008 694.48 451.06 694.011 451.381 693.753C451.385 693.749 451.391 693.744 451.398 693.74L451.413 693.731Z" fill="white"/>
<defs>
<filter id="filter0_d_125_297" x="-265.029" y="9.61667" width="975.479" height="978.077" filterUnits="userSpaceOnUse" color-interpolation-filters="sRGB">
<feFlood flood-opacity="0" result="BackgroundImageFix"/>
<feColorMatrix in="SourceAlpha" type="matrix" values="0 0 0 0 0 0 0 0 0 0 0 0 0 0 0 0 0 0 127 0" result="hardAlpha"/>
<feOffset dy="10"/>
<feGaussianBlur stdDeviation="12.5"/>
<feComposite in2="hardAlpha" operator="out"/>
<feColorMatrix type="matrix" values="0 0 0 0 0 0 0 0 0 0 0 0 0 0 0 0 0 0 0.25 0"/>
<feBlend mode="normal" in2="BackgroundImageFix" result="effect1_dropShadow_125_297"/>
<feBlend mode="normal" in="SourceGraphic" in2="effect1_dropShadow_125_297" result="shape"/>
</filter>
<linearGradient id="paint0_linear_125_297" x1="644" y1="997" x2="65.5" y2="44" gradientUnits="userSpaceOnUse">
<stop stop-color="#C2E0F2"/>
<stop offset="1" stop-color="white"/>
</linearGradient>
<linearGradient id="paint1_linear_125_297" x1="428.528" y1="327.01" x2="244.071" y2="506.455" gradientUnits="userSpaceOnUse">
<stop stop-color="#FDF53F"/>
<stop offset="1" stop-color="#D93C65"/>
</linearGradient>
<linearGradient id="paint2_linear_125_297" x1="449.11" y1="348.17" x2="264.656" y2="527.612" gradientUnits="userSpaceOnUse">
<stop stop-color="#FDF53F"/>
<stop offset="1" stop-color="#D93C65"/>
</linearGradient>
<linearGradient id="paint3_linear_125_297" x1="396.632" y1="460.269" x2="253.987" y2="617.22" gradientUnits="userSpaceOnUse">
<stop stop-color="#A737D5"/>
<stop offset="1" stop-color="#EF497A"/>
</linearGradient>
<linearGradient id="paint4_linear_125_297" x1="413.466" y1="475.569" x2="270.821" y2="632.521" gradientUnits="userSpaceOnUse">
<stop stop-color="#A737D5"/>
<stop offset="1" stop-color="#EF497A"/>
</linearGradient>
<linearGradient id="paint5_linear_125_297" x1="420.312" y1="523.112" x2="241.711" y2="686.492" gradientUnits="userSpaceOnUse">
<stop stop-color="#A737D5"/>
<stop offset="1" stop-color="#EF497A"/>
</linearGradient>
<linearGradient id="paint6_linear_125_297" x1="447.133" y1="506.169" x2="304.489" y2="663.121" gradientUnits="userSpaceOnUse">
<stop stop-color="#A737D5"/>
<stop offset="1" stop-color="#EF497A"/>
</linearGradient>
<linearGradient id="paint7_linear_125_297" x1="246.729" y1="493.117" x2="178.074" y2="693.782" gradientUnits="userSpaceOnUse">
<stop stop-color="#A737D5"/>
<stop offset="1" stop-color="#EF497A"/>
</linearGradient>
<linearGradient id="paint8_linear_125_297" x1="377.551" y1="234.23" x2="250.167" y2="401.8" gradientUnits="userSpaceOnUse">
<stop stop-color="#2B3582"/>
<stop offset="1" stop-color="#150E42"/>
</linearGradient>
<linearGradient id="paint9_linear_125_297" x1="391.524" y1="244.852" x2="264.14" y2="412.422" gradientUnits="userSpaceOnUse">
<stop stop-color="#2B3582"/>
<stop offset="1" stop-color="#150E42"/>
</linearGradient>
<linearGradient id="paint10_linear_125_297" x1="551.982" y1="810.226" x2="512.678" y2="810.226" gradientUnits="userSpaceOnUse">
<stop stop-color="#090056"/>
<stop offset="1" stop-color="#020039"/>
</linearGradient>
<linearGradient id="paint11_linear_125_297" x1="482.911" y1="760.219" x2="564.797" y2="854.18" gradientUnits="userSpaceOnUse">
<stop stop-color="#090056"/>
<stop offset="1" stop-color="#020039"/>
</linearGradient>
<linearGradient id="paint12_linear_125_297" x1="621.025" y1="810.324" x2="602.622" y2="810.324" gradientUnits="userSpaceOnUse">
<stop stop-color="#090056"/>
<stop offset="1" stop-color="#020039"/>
</linearGradient>
<linearGradient id="paint13_linear_125_297" x1="527.776" y1="721.118" x2="609.662" y2="815.08" gradientUnits="userSpaceOnUse">
<stop stop-color="#090056"/>
<stop offset="1" stop-color="#020039"/>
</linearGradient>
<linearGradient id="paint14_linear_125_297" x1="613.242" y1="797.637" x2="601.3" y2="797.637" gradientUnits="userSpaceOnUse">
<stop stop-color="#FEBBBA"/>
<stop offset="1" stop-color="#FF928E"/>
</linearGradient>
<linearGradient id="paint15_linear_125_297" x1="549.982" y1="796.855" x2="540.03" y2="796.855" gradientUnits="userSpaceOnUse">
<stop stop-color="#FEBBBA"/>
<stop offset="1" stop-color="#FF928E"/>
</linearGradient>
<linearGradient id="paint16_linear_125_297" x1="804.469" y1="847.513" x2="578.622" y2="733.74" gradientUnits="userSpaceOnUse">
<stop stop-color="#090056"/>
<stop offset="1" stop-color="#020039"/>
</linearGradient>
<linearGradient id="paint17_linear_125_297" x1="525.234" y1="643.847" x2="565.968" y2="696.509" gradientUnits="userSpaceOnUse">
<stop stop-color="#CB236D"/>
<stop offset="1" stop-color="#4C246D"/>
</linearGradient>
<linearGradient id="paint18_linear_125_297" x1="529.205" y1="546.293" x2="527.648" y2="517.253" gradientUnits="userSpaceOnUse">
<stop stop-color="#FEBBBA"/>
<stop offset="1" stop-color="#FF928E"/>
</linearGradient>
<linearGradient id="paint19_linear_125_297" x1="518.976" y1="497.874" x2="547.913" y2="525.395" gradientUnits="userSpaceOnUse">
<stop stop-color="#FEBBBA"/>
<stop offset="1" stop-color="#FF928E"/>
</linearGradient>
<linearGradient id="paint20_linear_125_297" x1="511.029" y1="488.347" x2="590.273" y2="509.856" gradientUnits="userSpaceOnUse">
<stop stop-color="#090056"/>
<stop offset="1" stop-color="#020039"/>
</linearGradient>
<linearGradient id="paint21_linear_125_297" x1="523.438" y1="493.183" x2="552.374" y2="520.704" gradientUnits="userSpaceOnUse">
<stop stop-color="#FEBBBA"/>
<stop offset="1" stop-color="#FF928E"/>
</linearGradient>
<linearGradient id="paint22_linear_125_297" x1="568.749" y1="654.396" x2="616.579" y2="585.623" gradientUnits="userSpaceOnUse">
<stop stop-color="#FEBBBA"/>
<stop offset="1" stop-color="#FF928E"/>
</linearGradient>
</defs>
</svg>
