<svg width="20" height="27" viewBox="0 0 20 27" fill="none" xmlns="http://www.w3.org/2000/svg">
<g clip-path="url(#clip0_115_311)">
<path d="M19.1667 2.5C19.625 2.5 20 2.125 20 1.66667V0.833333C20 0.375 19.625 0 19.1667 0H0.833333C0.375 0 0 0.375 0 0.833333V1.66667C0 2.125 0.375 2.5 0.833333 2.5H1.66667V10.6615C0.614583 11.1875 0 11.8177 0 12.5C0 16 1.80208 19.0729 4.52083 20.8594L3.40625 24.5156C3.07812 25.5833 3.88021 26.6667 5 26.6667H15C16.1198 26.6667 16.9219 25.5833 16.5938 24.5156L15.4792 20.8594C18.1979 19.0729 20 16 20 12.5C20 11.8177 19.3854 11.1875 18.3333 10.6615V2.5H19.1667ZM4.16667 3.75C4.16667 3.52083 4.35417 3.33333 4.58333 3.33333H7.08333C7.3125 3.33333 7.5 3.52083 7.5 3.75V4.58333C7.5 4.8125 7.3125 5 7.08333 5H4.58333C4.35417 5 4.16667 4.8125 4.16667 4.58333V3.75ZM10 14.1667C5.98438 14.1667 2.72917 13.4219 2.72917 12.5C2.72917 11.5781 5.98438 10.8333 10 10.8333C14.0156 10.8333 17.2708 11.5781 17.2708 12.5C17.2708 13.4219 14.0156 14.1667 10 14.1667Z" fill="#145D8A"/>
</g>
<defs>
<clipPath id="clip0_115_311">
<rect width="20" height="26.6667" fill="white"/>
</clipPath>
</defs>
</svg>
